<svg width="861" height="427" viewBox="0 0 861 427" fill="none" xmlns="http://www.w3.org/2000/svg">
<rect width="861" height="427" fill="#1E1E1E"/>
<g id="Section 1">
<path d="M-3724 -2798C-3724 -2799.1 -3723.1 -2800 -3722 -2800H3226C3227.1 -2800 3228 -2799.1 3228 -2798V2089C3228 2090.1 3227.1 2091 3226 2091H-3722C-3723.1 2091 -3724 2090.1 -3724 2089V-2798Z" fill="#404040"/>
<path d="M-3722 -2799H3226V-2801H-3722V-2799ZM3227 -2798V2089H3229V-2798H3227ZM3226 2090H-3722V2092H3226V2090ZM-3723 2089V-2798H-3725V2089H-3723ZM-3722 2090C-3722.55 2090 -3723 2089.55 -3723 2089H-3725C-3725 2090.66 -3723.66 2092 -3722 2092V2090ZM3227 2089C3227 2089.55 3226.55 2090 3226 2090V2092C3227.66 2092 3229 2090.66 3229 2089H3227ZM3226 -2799C3226.55 -2799 3227 -2798.55 3227 -2798H3229C3229 -2799.66 3227.66 -2801 3226 -2801V-2799ZM-3722 -2801C-3723.66 -2801 -3725 -2799.66 -3725 -2798H-3723C-3723 -2798.55 -3722.55 -2799 -3722 -2799V-2801Z" fill="white" fill-opacity="0.1"/>
<g id="vectors only no image">
<rect width="546" height="448" transform="translate(153 -13)" fill="white"/>
<g id="billingvector">
<g id="billingvector_2">
<g id="plan5">
<g id="standard">
<rect id="standard_2" x="694.5" y="65.5" width="166" height="346" rx="7.5" fill="white" stroke="#F4F8FB"/>
</g>
</g>
<g id="plan4">
<g id="standard_3">
<rect id="standard_4" x="519.5" y="65.5" width="166" height="346" rx="7.5" fill="white" stroke="#F4F8FB"/>
</g>
</g>
<g id="professional">
<g id="standard_5">
<rect id="standard_6" x="342.5" y="65.5" width="166" height="346" rx="7.5" fill="#F4F8FB" stroke="#F4F8FB"/>
</g>
</g>
<g id="plan2">
<g id="standard_7">
<rect id="standard_8" x="175.5" y="65.5" width="166" height="346" rx="7.5" fill="white" stroke="#F4F8FB"/>
</g>
</g>
<g id="plan1">
<g id="standard_9">
<rect id="standard_10" x="0.5" y="65.5" width="166" height="346" rx="7.5" fill="white" stroke="#F4F8FB"/>
</g>
</g>
</g>
</g>
</g>
<g id="vectors only no image_2">
<rect width="546" height="448" transform="translate(739 -13)" fill="white"/>
<g id="billingvector_3">
<g id="billingvector_4">
<g id="screen-static">
<rect id="screen" x="741" y="1" width="540" height="426" rx="10" fill="white"/>
</g>
<g id="plan2_2">
<g id="standard_11">
<rect id="standard_12" x="761.5" y="65.5" width="166" height="346" rx="7.5" fill="white" stroke="#F4F8FB"/>
</g>
</g>
<g id="plan1_2">
<g id="standard_13">
<rect id="standard_14" x="586.5" y="65.5" width="166" height="346" rx="7.5" fill="white" stroke="#F4F8FB"/>
</g>
</g>
</g>
</g>
</g>
</g>
</svg>
