<svg width="390" height="844" viewBox="0 0 390 844" fill="none" xmlns="http://www.w3.org/2000/svg">
<rect width="390" height="844" fill="#1E1E1E"/>
<g id="SVG ANIMATION MAKING">
<path d="M-2137 -158C-2137 -159.105 -2136.1 -160 -2135 -160H8363C8364.1 -160 8365 -159.105 8365 -158V11204C8365 11205.1 8364.1 11206 8363 11206H-2135C-2136.1 11206 -2137 11205.1 -2137 11204V-158Z" fill="#404040"/>
<path d="M-2135 -159H8363V-161H-2135V-159ZM8364 -158V11204H8366V-158H8364ZM8363 11205H-2135V11207H8363V11205ZM-2136 11204V-158H-2138V11204H-2136ZM-2135 11205C-2135.55 11205 -2136 11204.6 -2136 11204H-2138C-2138 11205.7 -2136.66 11207 -2135 11207V11205ZM8364 11204C8364 11204.6 8363.55 11205 8363 11205V11207C8364.66 11207 8366 11205.7 8366 11204H8364ZM8363 -159C8363.55 -159 8364 -158.552 8364 -158H8366C8366 -159.657 8364.66 -161 8363 -161V-159ZM-2135 -161C-2136.66 -161 -2138 -159.657 -2138 -158H-2136C-2136 -158.552 -2135.55 -159 -2135 -159V-161Z" fill="white" fill-opacity="0.1"/>
<rect id="frame" width="390" height="844" rx="10" fill="white"/>
</g>
</svg>
