<svg width="34" height="34" viewBox="0 0 34 34" fill="none" xmlns="http://www.w3.org/2000/svg">
<g id="play-fast" clip-path="url(#clip0_36_126)">
<g id="play-fast_2">
<path id="light2" d="M22.5 16.134C23.1667 16.5189 23.1667 17.4811 22.5 17.866L7.5 26.5263C6.83334 26.9112 6 26.4301 6 25.6603L6 8.33975C6 7.56995 6.83334 7.08882 7.5 7.47372L22.5 16.134Z" fill="#00D4FF" fill-opacity="0.5"/>
<path id="light1" d="M-0.5 16.134C0.166667 16.5189 0.166666 17.4811 -0.5 17.866L-15.5 26.5263C-16.1667 26.9112 -17 26.4301 -17 25.6603L-17 8.33975C-17 7.56995 -16.1667 7.08882 -15.5 7.47372L-0.5 16.134Z" fill="#00D4FF" fill-opacity="0.5"/>
<path id="dark2" d="M30.5 16.134C31.1667 16.5189 31.1667 17.4811 30.5 17.866L15.5 26.5263C14.8333 26.9112 14 26.4301 14 25.6603L14 8.33975C14 7.56995 14.8333 7.08882 15.5 7.47372L30.5 16.134Z" fill="#003AB9" fill-opacity="0.5"/>
<path id="dark1" d="M-0.5 16.134C0.166667 16.5189 0.166666 17.4811 -0.5 17.866L-15.5 26.5263C-16.1667 26.9112 -17 26.4301 -17 25.6603L-17 8.33975C-17 7.56995 -16.1667 7.08882 -15.5 7.47372L-0.5 16.134Z" fill="#003AB9" fill-opacity="0.5"/>
</g>
</g>
<defs>
<clipPath id="clip0_36_126">
<rect width="34" height="34" fill="white"/>
</clipPath>
</defs>
</svg>
