<svg width="390" height="4491" viewBox="0 0 390 4491" fill="none" xmlns="http://www.w3.org/2000/svg">
<rect width="390" height="4491" fill="#1E1E1E"/>
<g id="SVG ANIMATION MAKING">
<path d="M-3395 -200C-3395 -201.105 -3394.1 -202 -3393 -202H7105C7106.1 -202 7107 -201.105 7107 -200V11162C7107 11163.1 7106.1 11164 7105 11164H-3393C-3394.1 11164 -3395 11163.1 -3395 11162V-200Z" fill="#404040"/>
<path d="M-3393 -201H7105V-203H-3393V-201ZM7106 -200V11162H7108V-200H7106ZM7105 11163H-3393V11165H7105V11163ZM-3394 11162V-200H-3396V11162H-3394ZM-3393 11163C-3393.55 11163 -3394 11162.6 -3394 11162H-3396C-3396 11163.7 -3394.66 11165 -3393 11165V11163ZM7106 11162C7106 11162.6 7105.55 11163 7105 11163V11165C7106.66 11165 7108 11163.7 7108 11162H7106ZM7105 -201C7105.55 -201 7106 -200.552 7106 -200H7108C7108 -201.657 7106.66 -203 7105 -203V-201ZM-3393 -203C-3394.66 -203 -3396 -201.657 -3396 -200H-3394C-3394 -200.552 -3393.55 -201 -3393 -201V-203Z" fill="white" fill-opacity="0.1"/>
<rect id="screenfull" width="390" height="4491" rx="10" fill="white"/>
</g>
</svg>
