<svg width="540" height="427" viewBox="0 0 540 427" fill="none" xmlns="http://www.w3.org/2000/svg">
<g id="billingvector">
<g id="screen-static">
<rect id="screen" y="1" width="540" height="426" rx="10" fill="white"/>
</g>
<g id="professional">
<g id="standard">
<rect id="standard_2" x="187.5" y="65.5" width="166" height="346" rx="7.5" fill="#F4F8FB" stroke="#F4F8FB"/>
</g>
<g id="subscribe">
<rect id="Rectangle 47" opacity="0.6" x="204" y="191" width="133" height="27" rx="4" fill="#8A59FD"/>
</g>
<g id="popular">
<rect id="Rectangle 50" x="294" y="86" width="40" height="15" rx="7.5" fill="#DFD8FC"/>
</g>
</g>
<g id="enterprise">
<g id="standard_3">
<rect id="standard_4" x="364.5" y="65.5" width="166" height="346" rx="7.5" fill="white" stroke="#F4F8FB"/>
</g>
<g id="subscribe_2">
<rect id="Rectangle 47_2" opacity="0.6" x="381" y="191" width="133" height="27" rx="4" fill="#8A59FD"/>
</g>
</g>
<g id="standard_5">
<g id="standard_6">
<rect id="standard_7" x="20.5" y="65.5" width="166" height="346" rx="7.5" fill="white" stroke="#F4F8FB"/>
</g>
<g id="Group 20">
<rect id="Rectangle 47_3" x="37" y="191" width="133" height="27" rx="4" fill="#8A59FD"/>
</g>
</g>
<g id="enterprise_2">
<g id="standard_8">
<rect id="standard_9" x="20.5" y="65.5" width="166" height="346" rx="7.5" fill="white" stroke="#F4F8FB"/>
</g>
<g id="subscribe_3">
<rect id="Rectangle 47_4" opacity="0.6" x="37" y="191" width="133" height="27" rx="4" fill="#8A59FD"/>
</g>
</g>
<g id="tag" clip-path="url(#clip0_49_1752)">
<g id="tag_2">
<g id="Group 25">
<circle id="Ellipse 15" cx="38" cy="27" r="10" fill="url(#paint0_linear_49_1752)"/>
<circle id="Ellipse 16" cx="38.0002" cy="27.0002" r="4.79412" stroke="white"/>
<circle id="Ellipse 17" cx="38.0001" cy="27.0001" r="1.76471" fill="white"/>
</g>
<path id="Quantum" d="M61.984 34.304C61.728 34.16 61.468 33.968 61.204 33.728C60.948 33.496 60.708 33.232 60.484 32.936C60.26 32.64 60.068 32.34 59.908 32.036L61.144 31.508C61.344 31.924 61.616 32.3 61.96 32.636C62.304 32.972 62.66 33.256 63.028 33.488L61.984 34.304ZM55.66 27.764C55.66 26.876 55.82 26.108 56.14 25.46C56.468 24.812 56.936 24.312 57.544 23.96C58.152 23.6 58.876 23.42 59.716 23.42C60.548 23.42 61.268 23.6 61.876 23.96C62.484 24.312 62.952 24.812 63.28 25.46C63.616 26.108 63.784 26.872 63.784 27.752C63.784 28.64 63.616 29.412 63.28 30.068C62.952 30.716 62.484 31.22 61.876 31.58C61.268 31.94 60.548 32.12 59.716 32.12C58.876 32.12 58.152 31.94 57.544 31.58C56.944 31.22 56.48 30.716 56.152 30.068C55.824 29.412 55.66 28.644 55.66 27.764ZM57.28 27.764C57.28 28.716 57.484 29.46 57.892 29.996C58.3 30.532 58.908 30.8 59.716 30.8C60.5 30.8 61.104 30.532 61.528 29.996C61.952 29.46 62.164 28.716 62.164 27.764C62.164 26.804 61.952 26.06 61.528 25.532C61.112 25.004 60.508 24.74 59.716 24.74C58.908 24.74 58.3 25.004 57.892 25.532C57.484 26.06 57.28 26.804 57.28 27.764ZM67.4453 32.12C66.7013 32.12 66.1453 31.916 65.7773 31.508C65.4093 31.1 65.2253 30.476 65.2253 29.636V25.94H66.7253V29.624C66.7253 30.072 66.8173 30.404 67.0013 30.62C67.1853 30.828 67.4653 30.932 67.8413 30.932C68.2653 30.932 68.6093 30.788 68.8733 30.5C69.1453 30.212 69.2813 29.832 69.2813 29.36V25.94H70.7813V32H69.3173V30.764H69.4853C69.3093 31.196 69.0413 31.532 68.6813 31.772C68.3293 32.004 67.9173 32.12 67.4453 32.12ZM74.7498 32.12C74.2218 32.12 73.7578 31.996 73.3577 31.748C72.9578 31.492 72.6458 31.128 72.4218 30.656C72.1978 30.184 72.0858 29.62 72.0858 28.964C72.0858 28.308 72.1978 27.748 72.4218 27.284C72.6458 26.812 72.9578 26.452 73.3577 26.204C73.7578 25.948 74.2218 25.82 74.7498 25.82C75.2618 25.82 75.7098 25.948 76.0938 26.204C76.4858 26.452 76.7458 26.788 76.8738 27.212H76.7418L76.8738 25.94H78.3138C78.2898 26.188 78.2658 26.44 78.2418 26.696C78.2258 26.952 78.2178 27.204 78.2178 27.452V32H76.7298L76.7178 30.752H76.8618C76.7338 31.168 76.4738 31.5 76.0818 31.748C75.6898 31.996 75.2458 32.12 74.7498 32.12ZM75.1698 30.968C75.6418 30.968 76.0218 30.804 76.3098 30.476C76.5978 30.14 76.7418 29.636 76.7418 28.964C76.7418 28.292 76.5978 27.792 76.3098 27.464C76.0218 27.136 75.6418 26.972 75.1698 26.972C74.6978 26.972 74.3178 27.136 74.0298 27.464C73.7418 27.792 73.5978 28.292 73.5978 28.964C73.5978 29.636 73.7378 30.14 74.0178 30.476C74.3058 30.804 74.6898 30.968 75.1698 30.968ZM79.8512 32V27.452C79.8512 27.204 79.8432 26.952 79.8272 26.696C79.8112 26.44 79.7872 26.188 79.7552 25.94H81.2072L81.3272 27.14H81.1832C81.3752 26.716 81.6592 26.392 82.0352 26.168C82.4112 25.936 82.8472 25.82 83.3432 25.82C84.0552 25.82 84.5912 26.02 84.9512 26.42C85.3112 26.82 85.4912 27.444 85.4912 28.292V32H83.9912V28.364C83.9912 27.876 83.8952 27.528 83.7032 27.32C83.5192 27.104 83.2392 26.996 82.8632 26.996C82.3992 26.996 82.0312 27.14 81.7592 27.428C81.4872 27.716 81.3512 28.1 81.3512 28.58V32H79.8512ZM89.6736 32.12C88.9536 32.12 88.4096 31.932 88.0416 31.556C87.6736 31.18 87.4896 30.616 87.4896 29.864V27.068H86.3256V25.94H87.4896V24.392L88.9896 24.008V25.94H90.6096V27.068H88.9896V29.768C88.9896 30.184 89.0696 30.476 89.2296 30.644C89.3896 30.812 89.6096 30.896 89.8896 30.896C90.0416 30.896 90.1696 30.884 90.2736 30.86C90.3856 30.836 90.4936 30.804 90.5976 30.764V31.952C90.4616 32.008 90.3096 32.048 90.1416 32.072C89.9816 32.104 89.8256 32.12 89.6736 32.12ZM93.8125 32.12C93.0685 32.12 92.5125 31.916 92.1445 31.508C91.7765 31.1 91.5925 30.476 91.5925 29.636V25.94H93.0925V29.624C93.0925 30.072 93.1845 30.404 93.3685 30.62C93.5525 30.828 93.8325 30.932 94.2085 30.932C94.6325 30.932 94.9765 30.788 95.2405 30.5C95.5125 30.212 95.6485 29.832 95.6485 29.36V25.94H97.1485V32H95.6845V30.764H95.8525C95.6765 31.196 95.4085 31.532 95.0485 31.772C94.6965 32.004 94.2845 32.12 93.8125 32.12ZM98.7769 32V27.452C98.7769 27.204 98.7689 26.952 98.7529 26.696C98.7369 26.44 98.7129 26.188 98.6809 25.94H100.133L100.253 27.14H100.109C100.277 26.724 100.533 26.4 100.877 26.168C101.229 25.936 101.645 25.82 102.125 25.82C102.605 25.82 103.001 25.936 103.313 26.168C103.633 26.392 103.857 26.744 103.985 27.224H103.793C103.961 26.792 104.237 26.452 104.621 26.204C105.005 25.948 105.445 25.82 105.941 25.82C106.621 25.82 107.129 26.02 107.465 26.42C107.801 26.82 107.969 27.444 107.969 28.292V32H106.469V28.352C106.469 27.872 106.389 27.528 106.229 27.32C106.069 27.104 105.813 26.996 105.461 26.996C105.045 26.996 104.717 27.144 104.477 27.44C104.237 27.728 104.117 28.12 104.117 28.616V32H102.617V28.352C102.617 27.872 102.537 27.528 102.377 27.32C102.217 27.104 101.961 26.996 101.609 26.996C101.193 26.996 100.865 27.144 100.625 27.44C100.393 27.728 100.277 28.12 100.277 28.616V32H98.7769Z" fill="black"/>
</g>
</g>
</g>
<defs>
<linearGradient id="paint0_linear_49_1752" x1="45.6471" y1="34.0588" x2="28" y2="23.4706" gradientUnits="userSpaceOnUse">
<stop stop-color="#6D36F0"/>
<stop offset="0.723834" stop-color="#C2AEF2"/>
<stop offset="1" stop-color="#EEE7FF"/>
</linearGradient>
<clipPath id="clip0_49_1752">
<rect width="120" height="52" fill="white" transform="translate(11)"/>
</clipPath>
</defs>
</svg>
