<svg width="508" height="998" viewBox="0 0 508 998" fill="none" xmlns="http://www.w3.org/2000/svg">
<rect width="508" height="998" fill="#1E1E1E"/>
<g id="wireframeApp">
<rect id="screen" width="508" height="998" rx="20" fill="white"/>
<g id="Vector">
<path d="M76 772C76 770.895 76.8954 770 78 770H212C213.105 770 214 770.895 214 772V781C214 782.105 213.105 783 212 783H78C76.8954 783 76 782.105 76 781V772Z" fill="#D9D9D9"/>
<path d="M76 790C76 788.895 76.8954 788 78 788H90C91.1046 788 92 788.895 92 790V797C92 798.105 91.1046 799 90 799H78C76.8954 799 76 798.105 76 797V790Z" fill="#D9D9D9"/>
<path d="M94 790C94 788.895 94.8954 788 96 788H139C140.105 788 141 788.895 141 790V797C141 798.105 140.105 799 139 799H96C94.8954 799 94 798.105 94 797V790Z" fill="#D9D9D9"/>
<path d="M144 790C144 788.895 144.895 788 146 788H171C172.105 788 173 788.895 173 790V797C173 798.105 172.105 799 171 799H146C144.895 799 144 798.105 144 797V790Z" fill="#D9D9D9"/>
<path d="M76 805C76 803.895 76.8954 803 78 803H121C122.105 803 123 803.895 123 805V809C123 810.105 122.105 811 121 811H78C76.8954 811 76 810.105 76 809V805Z" fill="#D9D9D9"/>
<path d="M126 805C126 803.895 126.895 803 128 803H154C155.105 803 156 803.895 156 805V809C156 810.105 155.105 811 154 811H128C126.895 811 126 810.105 126 809V805Z" fill="#D9D9D9"/>
<path d="M76 817C76 815.895 76.8954 815 78 815H135C136.105 815 137 815.895 137 817V821C137 822.105 136.105 823 135 823H78C76.8954 823 76 822.105 76 821V817Z" fill="#D9D9D9"/>
<path d="M76 654C76 651.791 77.7909 650 80 650H210C212.209 650 214 651.791 214 654V748C214 750.209 212.209 752 210 752H80C77.7909 752 76 750.209 76 748V654Z" fill="#EAEAEC"/>
<path d="M76 720L116.081 680L166.309 726.5L184.066 709.5L214 740V748C214 750.209 212.209 752 210 752H80C77.7909 752 76 750.209 76 748V720Z" fill="#CFCECE"/>
<path d="M292 772C292 770.895 292.895 770 294 770H428C429.105 770 430 770.895 430 772V781C430 782.105 429.105 783 428 783H294C292.895 783 292 782.105 292 781V772Z" fill="#D9D9D9"/>
<path d="M292 790C292 788.895 292.895 788 294 788H306C307.105 788 308 788.895 308 790V797C308 798.105 307.105 799 306 799H294C292.895 799 292 798.105 292 797V790Z" fill="#D9D9D9"/>
<path d="M310 790C310 788.895 310.895 788 312 788H355C356.105 788 357 788.895 357 790V797C357 798.105 356.105 799 355 799H312C310.895 799 310 798.105 310 797V790Z" fill="#D9D9D9"/>
<path d="M360 790C360 788.895 360.895 788 362 788H387C388.105 788 389 788.895 389 790V797C389 798.105 388.105 799 387 799H362C360.895 799 360 798.105 360 797V790Z" fill="#D9D9D9"/>
<path d="M292 805C292 803.895 292.895 803 294 803H337C338.105 803 339 803.895 339 805V809C339 810.105 338.105 811 337 811H294C292.895 811 292 810.105 292 809V805Z" fill="#D9D9D9"/>
<path d="M342 805C342 803.895 342.895 803 344 803H370C371.105 803 372 803.895 372 805V809C372 810.105 371.105 811 370 811H344C342.895 811 342 810.105 342 809V805Z" fill="#D9D9D9"/>
<path d="M292 817C292 815.895 292.895 815 294 815H351C352.105 815 353 815.895 353 817V821C353 822.105 352.105 823 351 823H294C292.895 823 292 822.105 292 821V817Z" fill="#D9D9D9"/>
<path d="M292 654C292 651.791 293.791 650 296 650H426C428.209 650 430 651.791 430 654V748C430 750.209 428.209 752 426 752H296C293.791 752 292 750.209 292 748V654Z" fill="#EAEAEC"/>
<path d="M292 720L332.081 680L382.309 726.5L400.066 709.5L430 740V748C430 750.209 428.209 752 426 752H296C293.791 752 292 750.209 292 748V720Z" fill="#CFCECE"/>
<path d="M76 515C76 513.895 76.8954 513 78 513H212C213.105 513 214 513.895 214 515V524C214 525.105 213.105 526 212 526H78C76.8954 526 76 525.105 76 524V515Z" fill="#D9D9D9"/>
<path d="M76 533C76 531.895 76.8954 531 78 531H90C91.1046 531 92 531.895 92 533V540C92 541.105 91.1046 542 90 542H78C76.8954 542 76 541.105 76 540V533Z" fill="#D9D9D9"/>
<path d="M94 533C94 531.895 94.8954 531 96 531H139C140.105 531 141 531.895 141 533V540C141 541.105 140.105 542 139 542H96C94.8954 542 94 541.105 94 540V533Z" fill="#D9D9D9"/>
<path d="M144 533C144 531.895 144.895 531 146 531H171C172.105 531 173 531.895 173 533V540C173 541.105 172.105 542 171 542H146C144.895 542 144 541.105 144 540V533Z" fill="#D9D9D9"/>
<path d="M76 548C76 546.895 76.8954 546 78 546H121C122.105 546 123 546.895 123 548V552C123 553.105 122.105 554 121 554H78C76.8954 554 76 553.105 76 552V548Z" fill="#D9D9D9"/>
<path d="M126 548C126 546.895 126.895 546 128 546H154C155.105 546 156 546.895 156 548V552C156 553.105 155.105 554 154 554H128C126.895 554 126 553.105 126 552V548Z" fill="#D9D9D9"/>
<path d="M76 560C76 558.895 76.8954 558 78 558H135C136.105 558 137 558.895 137 560V564C137 565.105 136.105 566 135 566H78C76.8954 566 76 565.105 76 564V560Z" fill="#D9D9D9"/>
<path d="M76 397C76 394.791 77.7909 393 80 393H210C212.209 393 214 394.791 214 397V491C214 493.209 212.209 495 210 495H80C77.7909 495 76 493.209 76 491V397Z" fill="#EAEAEC"/>
<path d="M76 463L116.081 423L166.309 469.5L184.066 452.5L214 483V491C214 493.209 212.209 495 210 495H80C77.7909 495 76 493.209 76 491V463Z" fill="#CFCECE"/>
<path d="M292 515C292 513.895 292.895 513 294 513H428C429.105 513 430 513.895 430 515V524C430 525.105 429.105 526 428 526H294C292.895 526 292 525.105 292 524V515Z" fill="#D9D9D9"/>
<path d="M292 533C292 531.895 292.895 531 294 531H306C307.105 531 308 531.895 308 533V540C308 541.105 307.105 542 306 542H294C292.895 542 292 541.105 292 540V533Z" fill="#D9D9D9"/>
<path d="M310 533C310 531.895 310.895 531 312 531H355C356.105 531 357 531.895 357 533V540C357 541.105 356.105 542 355 542H312C310.895 542 310 541.105 310 540V533Z" fill="#D9D9D9"/>
<path d="M360 533C360 531.895 360.895 531 362 531H387C388.105 531 389 531.895 389 533V540C389 541.105 388.105 542 387 542H362C360.895 542 360 541.105 360 540V533Z" fill="#D9D9D9"/>
<path d="M292 548C292 546.895 292.895 546 294 546H337C338.105 546 339 546.895 339 548V552C339 553.105 338.105 554 337 554H294C292.895 554 292 553.105 292 552V548Z" fill="#D9D9D9"/>
<path d="M342 548C342 546.895 342.895 546 344 546H370C371.105 546 372 546.895 372 548V552C372 553.105 371.105 554 370 554H344C342.895 554 342 553.105 342 552V548Z" fill="#D9D9D9"/>
<path d="M292 560C292 558.895 292.895 558 294 558H351C352.105 558 353 558.895 353 560V564C353 565.105 352.105 566 351 566H294C292.895 566 292 565.105 292 564V560Z" fill="#D9D9D9"/>
<path d="M292 397C292 394.791 293.791 393 296 393H426C428.209 393 430 394.791 430 397V491C430 493.209 428.209 495 426 495H296C293.791 495 292 493.209 292 491V397Z" fill="#EAEAEC"/>
<path d="M292 463L332.081 423L382.309 469.5L400.066 452.5L430 483V491C430 493.209 428.209 495 426 495H296C293.791 495 292 493.209 292 491V463Z" fill="#CFCECE"/>
<path d="M143 269C143 259.059 151.059 251 161 251H354C363.941 251 372 259.059 372 269V271C372 280.941 363.941 289 354 289H161C151.059 289 143 280.941 143 271V269Z" fill="#F0F0F2"/>
<path fill-rule="evenodd" clip-rule="evenodd" d="M259.683 256L255.905 267.088H263L248.938 282L252.337 271.676H246L259.683 256Z" fill="white"/>
<path d="M438 192C438 190.895 437.105 190 436 190H260C258.895 190 258 190.895 258 192V218C258 219.105 258.895 220 260 220H436C437.105 220 438 219.105 438 218V192Z" fill="#F0F0F2"/>
<path d="M243 192C243 190.895 242.105 190 241 190H182C180.895 190 180 190.895 180 192V218C180 219.105 180.895 220 182 220H241C242.105 220 243 219.105 243 218V192Z" fill="#F0F0F2"/>
<path d="M164 192C164 190.895 163.105 190 162 190H68C66.8954 190 66 190.895 66 192V218C66 219.105 66.8954 220 68 220H162C163.105 220 164 219.105 164 218V192Z" fill="#F0F0F2"/>
<path d="M46 153C46 151.895 46.8954 151 48 151H231C232.105 151 233 151.895 233 153V179C233 180.105 232.105 181 231 181H48C46.8954 181 46 180.105 46 179V153Z" fill="#F0F0F2"/>
<path d="M243 153C243 151.895 243.895 151 245 151H370C371.105 151 372 151.895 372 153V179C372 180.105 371.105 181 370 181H245C243.895 181 243 180.105 243 179V153Z" fill="#F0F0F2"/>
<path d="M387 153C387 151.895 387.895 151 389 151H457C458.105 151 459 151.895 459 153V179C459 180.105 458.105 181 457 181H389C387.895 181 387 180.105 387 179V153Z" fill="#F0F0F2"/>
<path d="M80 66C80 75.3888 72.3888 83 63 83C53.6112 83 46 75.3888 46 66C46 56.6112 53.6112 49 63 49C72.3888 49 80 56.6112 80 66Z" fill="#F0F0F2"/>
<path d="M431 54H461V59H431V54Z" fill="#F0F0F2"/>
<path d="M431 64H461V69H431V64Z" fill="#F0F0F2"/>
<path d="M431 73H461V78H431V73Z" fill="#F0F0F2"/>
</g>
<g id="green">
<g id="green8">
<path id="Rectangle 20" d="M0 898H508V978C508 989.046 499.046 998 488 998H20C8.9543 998 0 989.046 0 978V898Z" fill="#31A632"/>
<path id="Vector_2" d="M365 972C363.9 972 362.958 971.608 362.175 970.825C361.392 970.042 361 969.1 361 968C361 966.9 361.392 965.958 362.175 965.175C362.958 964.392 363.9 964 365 964C366.1 964 367.042 964.392 367.825 965.175C368.608 965.958 369 966.9 369 968C369 969.1 368.608 970.042 367.825 970.825C367.042 971.608 366.1 972 365 972ZM385 972C383.9 972 382.958 971.608 382.175 970.825C381.392 970.042 381 969.1 381 968C381 966.9 381.392 965.958 382.175 965.175C382.958 964.392 383.9 964 385 964C386.1 964 387.042 964.392 387.825 965.175C388.608 965.958 389 966.9 389 968C389 969.1 388.608 970.042 387.825 970.825C387.042 971.608 386.1 972 385 972ZM363.3 940L368.1 950H382.1L387.6 940H363.3ZM361.4 936H390.9C391.667 936 392.25 936.342 392.65 937.025C393.05 937.708 393.067 938.4 392.7 939.1L385.6 951.9C385.233 952.567 384.742 953.083 384.125 953.45C383.508 953.817 382.833 954 382.1 954H367.2L365 958H389V962H365C363.5 962 362.367 961.342 361.6 960.025C360.833 958.708 360.8 957.4 361.5 956.1L364.2 951.2L357 936H353V932H359.5L361.4 936Z" fill="white"/>
<circle id="Ellipse 14" cx="442" cy="952" r="20" fill="white"/>
<path id="Vector 26" d="M451.061 954.561C451.646 953.975 451.646 953.025 451.061 952.439L441.515 942.893C440.929 942.308 439.979 942.308 439.393 942.893C438.808 943.479 438.808 944.429 439.393 945.015L447.879 953.5L439.393 961.985C438.808 962.571 438.808 963.521 439.393 964.107C439.979 964.692 440.929 964.692 441.515 964.107L451.061 954.561ZM433 955H450V952H433V955Z" fill="#31A632"/>
</g>
<g id="green7">
<circle id="Ellipse 11" cx="413" cy="805" r="16.5" fill="#31A632" stroke="#31A632"/>
<path id="Vector 25 (Stroke)" fill-rule="evenodd" clip-rule="evenodd" d="M417.187 797L414.374 804.25H419.656L409.187 814L411.718 807.25H407L417.187 797Z" fill="white"/>
</g>
<g id="green6">
<circle id="Ellipse 11_2" cx="197" cy="805" r="16.5" fill="#31A632" stroke="#31A632"/>
<path id="Vector 25 (Stroke)_2" fill-rule="evenodd" clip-rule="evenodd" d="M201.187 797L198.374 804.25H203.656L193.187 814L195.718 807.25H191L201.187 797Z" fill="white"/>
</g>
<g id="green5">
<circle id="Ellipse 11_3" cx="413" cy="548" r="16.5" fill="#31A632" stroke="#31A632"/>
<path id="Vector 25 (Stroke)_3" fill-rule="evenodd" clip-rule="evenodd" d="M417.187 540L414.374 547.25H419.656L409.187 557L411.718 550.25H407L417.187 540Z" fill="white"/>
</g>
<g id="green4">
<circle id="Ellipse 11_4" cx="197" cy="548" r="16.5" fill="#31A632" stroke="#31A632"/>
<path id="Vector 25 (Stroke)_4" fill-rule="evenodd" clip-rule="evenodd" d="M201.187 540L198.374 547.25H203.656L193.187 557L195.718 550.25H191L201.187 540Z" fill="white"/>
</g>
<path id="green3" fill-rule="evenodd" clip-rule="evenodd" d="M401.684 403.716C403.93 401.428 407.57 401.428 409.816 403.716L411.5 405.431L413.184 403.716C415.43 401.428 419.07 401.428 421.316 403.716C423.561 406.003 423.561 409.712 421.316 412L411.5 422L401.684 412C399.439 409.712 399.439 406.003 401.684 403.716Z" fill="#31A632"/>
<g id="green2">
<rect id="Rectangle 10" x="143" y="251" width="229" height="38" rx="18" fill="#31A632"/>
<path id="Vector 25 (Stroke)_5" fill-rule="evenodd" clip-rule="evenodd" d="M259.683 256L255.905 267.088H263L248.938 282L252.337 271.676H246L259.683 256Z" fill="white"/>
</g>
<g id="green1">
<circle id="Ellipse 11_5" cx="389" cy="66" r="16.5" fill="#31A632" stroke="#31A632"/>
<circle id="Ellipse 12" cx="388.5" cy="60.5" r="6.5" fill="white"/>
<path id="Ellipse 13" d="M397 74C397 77.5899 391.59 78 388 78C384.41 78 380 77.5899 380 74C380 70.4101 384.91 68 388.5 68C392.09 68 397 70.4101 397 74Z" fill="white"/>
</g>
</g>
</g>
</svg>
