<svg width="200" height="200" viewBox="0 0 200 200" fill="none" xmlns="http://www.w3.org/2000/svg">
<rect width="200" height="200" fill="white"/>
<rect x="7.5" y="28.5" width="89" height="144" rx="4.5" stroke="#CBCBCB"/>
<rect x="16" y="40" width="72" height="8" fill="#D8D6D6"/>
<rect x="31" y="50" width="42" height="6" fill="#D8D6D6"/>
<rect x="16.5" y="68.5" width="10" height="10" rx="0.5" stroke="#B2B2B2"/>
<rect x="32" y="71" width="56" height="2" fill="#D9D9D9"/>
<rect x="32" y="74" width="28" height="2" fill="#D9D9D9"/>
<rect x="16.5" y="89.5" width="10" height="10" rx="0.5" stroke="#E8E8E8"/>
<rect x="32" y="92" width="56" height="2" fill="#D9D9D9"/>
<rect x="32" y="95" width="28" height="2" fill="#D9D9D9"/>
<rect x="16.5" y="110.5" width="10" height="10" rx="0.5" stroke="#E8E8E8"/>
<rect x="32" y="113" width="56" height="2" fill="#D9D9D9"/>
<rect x="32" y="116" width="28" height="2" fill="#D9D9D9"/>
<rect x="16.5" y="145.5" width="71" height="15" rx="4.5" fill="#E8E8E8"/>
<rect x="16.5" y="145.5" width="71" height="15" rx="4.5" stroke="black"/>
<path d="M35.65 157.12C33.61 157.12 32.09 155.53 32.09 153.52V153.5C32.09 151.51 33.58 149.88 35.69 149.88C36.99 149.88 37.77 150.33 38.44 150.97L37.65 151.88C37.08 151.36 36.49 151.02 35.68 151.02C34.36 151.02 33.38 152.11 33.38 153.48V153.5C33.38 154.87 34.35 155.98 35.69 155.98C36.54 155.98 37.1 155.64 37.7 155.08L38.49 155.88C37.78 156.65 36.95 157.12 35.65 157.12ZM42.0649 157.12C40.4549 157.12 39.2649 155.89 39.2649 154.39V154.37C39.2649 152.86 40.4649 151.61 42.0849 151.61C43.7149 151.61 44.8949 152.84 44.8949 154.35V154.37C44.8949 155.86 43.6949 157.12 42.0649 157.12ZM42.0849 156.06C43.0749 156.06 43.6849 155.3 43.6849 154.39V154.37C43.6849 153.44 43.0149 152.67 42.0649 152.67C41.0949 152.67 40.4749 153.43 40.4749 154.35V154.37C40.4749 155.29 41.1549 156.06 42.0849 156.06ZM46.1172 157V151.72H47.3372V152.53C47.6872 152.04 48.1572 151.61 48.9872 151.61C50.1872 151.61 50.8672 152.4 50.8672 153.63V157H49.6572V154C49.6572 153.17 49.2472 152.71 48.5272 152.71C47.8172 152.71 47.3372 153.19 47.3372 154.02V157H46.1172ZM52.5984 157V152.76H51.9284V151.75H52.5984V151.36C52.5984 150.78 52.7384 150.35 53.0284 150.06C53.3084 149.78 53.6984 149.64 54.2084 149.64C54.6384 149.64 54.9284 149.7 55.1984 149.78V150.8C54.9584 150.72 54.7584 150.67 54.4884 150.67C54.0184 150.67 53.7884 150.94 53.7884 151.47V151.76H55.1884V152.76H53.8084V157H52.5984ZM56.1484 157V151.72H57.3684V157H56.1484ZM56.1084 150.91V149.76H57.4084V150.91H56.1084ZM58.9395 157V151.72H60.1595V152.91C60.4895 152.11 61.0995 151.58 62.0295 151.62V152.9H61.9595C60.8895 152.9 60.1595 153.59 60.1595 154.99V157H58.9395ZM63.0703 157V151.72H64.2903V152.52C64.6303 152.05 65.0903 151.61 65.9003 151.61C66.6603 151.61 67.2003 151.98 67.4803 152.54C67.9103 151.98 68.4603 151.61 69.2603 151.61C70.4203 151.61 71.1103 152.34 71.1103 153.63V157H69.9003V154C69.9003 153.16 69.5103 152.71 68.8303 152.71C68.1603 152.71 67.7003 153.17 67.7003 154.02V157H66.4903V153.99C66.4903 153.16 66.1003 152.71 65.4203 152.71C64.7403 152.71 64.2903 153.21 64.2903 154.02V157H63.0703Z" fill="#BCBCBC"/>
<rect x="103.5" y="28.5" width="89" height="144" rx="4.5" stroke="#CBCBCB"/>
<rect x="112" y="40" width="72" height="8" fill="#D8D6D6"/>
<rect x="127" y="50" width="42" height="6" fill="#D8D6D6"/>
<rect x="112.5" y="68.5" width="10" height="10" rx="0.5" stroke="#1F507A"/>
<path d="M113.5 75L115.306 77L121.5 71" stroke="#337AB7"/>
<rect x="128" y="71" width="56" height="2" fill="#D9D9D9"/>
<rect x="128" y="74" width="28" height="2" fill="#D9D9D9"/>
<rect x="112.5" y="89.5" width="10" height="10" rx="0.5" stroke="#1F507A"/>
<path d="M113.5 96L115.306 98L121.5 92" stroke="#337AB7"/>
<rect x="128" y="92" width="56" height="2" fill="#D9D9D9"/>
<rect x="128" y="95" width="28" height="2" fill="#D9D9D9"/>
<rect x="112.5" y="110.5" width="10" height="10" rx="0.5" stroke="#1F507A"/>
<path d="M113.5 117L115.306 119L121.5 113" stroke="#337AB7"/>
<rect x="128" y="113" width="56" height="2" fill="#D9D9D9"/>
<rect x="128" y="116" width="28" height="2" fill="#D9D9D9"/>
<rect x="112" y="145" width="72" height="16" rx="5" fill="#65ABE6"/>
<rect x="112" y="145" width="72" height="16" rx="5" stroke="#173753"/>
<path d="M131.65 157.12C129.61 157.12 128.09 155.53 128.09 153.52V153.5C128.09 151.51 129.58 149.88 131.69 149.88C132.99 149.88 133.77 150.33 134.44 150.97L133.65 151.88C133.08 151.36 132.49 151.02 131.68 151.02C130.36 151.02 129.38 152.11 129.38 153.48V153.5C129.38 154.87 130.35 155.98 131.69 155.98C132.54 155.98 133.1 155.64 133.7 155.08L134.49 155.88C133.78 156.65 132.95 157.12 131.65 157.12ZM138.065 157.12C136.455 157.12 135.265 155.89 135.265 154.39V154.37C135.265 152.86 136.465 151.61 138.085 151.61C139.715 151.61 140.895 152.84 140.895 154.35V154.37C140.895 155.86 139.695 157.12 138.065 157.12ZM138.085 156.06C139.075 156.06 139.685 155.3 139.685 154.39V154.37C139.685 153.44 139.015 152.67 138.065 152.67C137.095 152.67 136.475 153.43 136.475 154.35V154.37C136.475 155.29 137.155 156.06 138.085 156.06ZM142.117 157V151.72H143.337V152.53C143.687 152.04 144.157 151.61 144.987 151.61C146.187 151.61 146.867 152.4 146.867 153.63V157H145.657V154C145.657 153.17 145.247 152.71 144.527 152.71C143.817 152.71 143.337 153.19 143.337 154.02V157H142.117ZM148.598 157V152.76H147.928V151.75H148.598V151.36C148.598 150.78 148.738 150.35 149.028 150.06C149.308 149.78 149.698 149.64 150.208 149.64C150.638 149.64 150.928 149.7 151.198 149.78V150.8C150.958 150.72 150.758 150.67 150.488 150.67C150.018 150.67 149.788 150.94 149.788 151.47V151.76H151.188V152.76H149.808V157H148.598ZM152.148 157V151.72H153.368V157H152.148ZM152.108 150.91V149.76H153.408V150.91H152.108ZM154.939 157V151.72H156.159V152.91C156.489 152.11 157.099 151.58 158.029 151.62V152.9H157.959C156.889 152.9 156.159 153.59 156.159 154.99V157H154.939ZM159.07 157V151.72H160.29V152.52C160.63 152.05 161.09 151.61 161.9 151.61C162.66 151.61 163.2 151.98 163.48 152.54C163.91 151.98 164.46 151.61 165.26 151.61C166.42 151.61 167.11 152.34 167.11 153.63V157H165.9V154C165.9 153.16 165.51 152.71 164.83 152.71C164.16 152.71 163.7 153.17 163.7 154.02V157H162.49V153.99C162.49 153.16 162.1 152.71 161.42 152.71C160.74 152.71 160.29 153.21 160.29 154.02V157H159.07Z" fill="#0E2132"/>
<path d="M111.354 154.354C111.549 154.158 111.549 153.842 111.354 153.646L108.172 150.464C107.976 150.269 107.66 150.269 107.464 150.464C107.269 150.66 107.269 150.976 107.464 151.172L110.293 154L107.464 156.828C107.269 157.024 107.269 157.34 107.464 157.536C107.66 157.731 107.976 157.731 108.172 157.536L111.354 154.354ZM88 154.5H111V153.5H88V154.5Z" fill="black"/>
</svg>
