<svg width="200" height="200" viewBox="0 0 200 200" fill="none" xmlns="http://www.w3.org/2000/svg">
<rect width="200" height="200" fill="white"/>
<rect x="7.5" y="45.5" width="89" height="110" rx="4.5" stroke="#CBCBCB"/>
<rect x="16" y="57" width="72" height="8" fill="#D8D6D6"/>
<rect x="31" y="67" width="42" height="6" fill="#D8D6D6"/>
<rect x="16.5" y="83.5" width="10" height="10" rx="0.5" stroke="#B2B2B2"/>
<rect x="32" y="86" width="56" height="2" fill="#D9D9D9"/>
<rect x="32" y="89" width="28" height="2" fill="#D9D9D9"/>
<rect x="16.5" y="97.5" width="10" height="10" rx="0.5" stroke="#E8E8E8"/>
<rect x="32" y="100" width="56" height="2" fill="#D9D9D9"/>
<rect x="32" y="103" width="28" height="2" fill="#D9D9D9"/>
<rect x="16.5" y="111.5" width="10" height="10" rx="0.5" stroke="#E8E8E8"/>
<rect x="32" y="114" width="56" height="2" fill="#D9D9D9"/>
<rect x="32" y="117" width="28" height="2" fill="#D9D9D9"/>
<rect x="16" y="132" width="72" height="16" rx="5" fill="#E8E8E8"/>
<rect x="16" y="132" width="72" height="16" rx="5" stroke="#D7DADC"/>
<path d="M35.65 144.12C33.61 144.12 32.09 142.53 32.09 140.52V140.5C32.09 138.51 33.58 136.88 35.69 136.88C36.99 136.88 37.77 137.33 38.44 137.97L37.65 138.88C37.08 138.36 36.49 138.02 35.68 138.02C34.36 138.02 33.38 139.11 33.38 140.48V140.5C33.38 141.87 34.35 142.98 35.69 142.98C36.54 142.98 37.1 142.64 37.7 142.08L38.49 142.88C37.78 143.65 36.95 144.12 35.65 144.12ZM42.0649 144.12C40.4549 144.12 39.2649 142.89 39.2649 141.39V141.37C39.2649 139.86 40.4649 138.61 42.0849 138.61C43.7149 138.61 44.8949 139.84 44.8949 141.35V141.37C44.8949 142.86 43.6949 144.12 42.0649 144.12ZM42.0849 143.06C43.0749 143.06 43.6849 142.3 43.6849 141.39V141.37C43.6849 140.44 43.0149 139.67 42.0649 139.67C41.0949 139.67 40.4749 140.43 40.4749 141.35V141.37C40.4749 142.29 41.1549 143.06 42.0849 143.06ZM46.1172 144V138.72H47.3372V139.53C47.6872 139.04 48.1572 138.61 48.9872 138.61C50.1872 138.61 50.8672 139.4 50.8672 140.63V144H49.6572V141C49.6572 140.17 49.2472 139.71 48.5272 139.71C47.8172 139.71 47.3372 140.19 47.3372 141.02V144H46.1172ZM52.5984 144V139.76H51.9284V138.75H52.5984V138.36C52.5984 137.78 52.7384 137.35 53.0284 137.06C53.3084 136.78 53.6984 136.64 54.2084 136.64C54.6384 136.64 54.9284 136.7 55.1984 136.78V137.8C54.9584 137.72 54.7584 137.67 54.4884 137.67C54.0184 137.67 53.7884 137.94 53.7884 138.47V138.76H55.1884V139.76H53.8084V144H52.5984ZM56.1484 144V138.72H57.3684V144H56.1484ZM56.1084 137.91V136.76H57.4084V137.91H56.1084ZM58.9395 144V138.72H60.1595V139.91C60.4895 139.11 61.0995 138.58 62.0295 138.62V139.9H61.9595C60.8895 139.9 60.1595 140.59 60.1595 141.99V144H58.9395ZM63.0703 144V138.72H64.2903V139.52C64.6303 139.05 65.0903 138.61 65.9003 138.61C66.6603 138.61 67.2003 138.98 67.4803 139.54C67.9103 138.98 68.4603 138.61 69.2603 138.61C70.4203 138.61 71.1103 139.34 71.1103 140.63V144H69.9003V141C69.9003 140.16 69.5103 139.71 68.8303 139.71C68.1603 139.71 67.7003 140.17 67.7003 141.02V144H66.4903V140.99C66.4903 140.16 66.1003 139.71 65.4203 139.71C64.7403 139.71 64.2903 140.21 64.2903 141.02V144H63.0703Z" fill="#BCBCBC"/>
<rect x="103.5" y="45.5" width="89" height="110" rx="4.5" stroke="#CBCBCB"/>
<rect x="112" y="57" width="72" height="8" fill="#D8D6D6"/>
<rect x="127" y="67" width="42" height="6" fill="#D8D6D6"/>
<rect x="112.5" y="83.5" width="10" height="10" rx="0.5" stroke="#1F507A"/>
<path d="M113.5 90L115.306 92L121.5 86" stroke="#337AB7"/>
<rect x="128" y="86" width="56" height="2" fill="#D9D9D9"/>
<rect x="128" y="89" width="28" height="2" fill="#D9D9D9"/>
<rect x="112.5" y="97.5" width="10" height="10" rx="0.5" stroke="#1F507A"/>
<path d="M113.5 104L115.306 106L121.5 100" stroke="#337AB7"/>
<rect x="128" y="100" width="56" height="2" fill="#D9D9D9"/>
<rect x="128" y="103" width="28" height="2" fill="#D9D9D9"/>
<rect x="112.5" y="111.5" width="10" height="10" rx="0.5" stroke="#1F507A"/>
<path d="M113.5 118L115.306 120L121.5 114" stroke="#337AB7"/>
<rect x="128" y="114" width="56" height="2" fill="#D9D9D9"/>
<rect x="128" y="117" width="28" height="2" fill="#D9D9D9"/>
<rect x="112" y="132" width="72" height="16" rx="5" fill="#65ABE6"/>
<rect x="112" y="132" width="72" height="16" rx="5" stroke="#173753"/>
<path d="M131.65 144.12C129.61 144.12 128.09 142.53 128.09 140.52V140.5C128.09 138.51 129.58 136.88 131.69 136.88C132.99 136.88 133.77 137.33 134.44 137.97L133.65 138.88C133.08 138.36 132.49 138.02 131.68 138.02C130.36 138.02 129.38 139.11 129.38 140.48V140.5C129.38 141.87 130.35 142.98 131.69 142.98C132.54 142.98 133.1 142.64 133.7 142.08L134.49 142.88C133.78 143.65 132.95 144.12 131.65 144.12ZM138.065 144.12C136.455 144.12 135.265 142.89 135.265 141.39V141.37C135.265 139.86 136.465 138.61 138.085 138.61C139.715 138.61 140.895 139.84 140.895 141.35V141.37C140.895 142.86 139.695 144.12 138.065 144.12ZM138.085 143.06C139.075 143.06 139.685 142.3 139.685 141.39V141.37C139.685 140.44 139.015 139.67 138.065 139.67C137.095 139.67 136.475 140.43 136.475 141.35V141.37C136.475 142.29 137.155 143.06 138.085 143.06ZM142.117 144V138.72H143.337V139.53C143.687 139.04 144.157 138.61 144.987 138.61C146.187 138.61 146.867 139.4 146.867 140.63V144H145.657V141C145.657 140.17 145.247 139.71 144.527 139.71C143.817 139.71 143.337 140.19 143.337 141.02V144H142.117ZM148.598 144V139.76H147.928V138.75H148.598V138.36C148.598 137.78 148.738 137.35 149.028 137.06C149.308 136.78 149.698 136.64 150.208 136.64C150.638 136.64 150.928 136.7 151.198 136.78V137.8C150.958 137.72 150.758 137.67 150.488 137.67C150.018 137.67 149.788 137.94 149.788 138.47V138.76H151.188V139.76H149.808V144H148.598ZM152.148 144V138.72H153.368V144H152.148ZM152.108 137.91V136.76H153.408V137.91H152.108ZM154.939 144V138.72H156.159V139.91C156.489 139.11 157.099 138.58 158.029 138.62V139.9H157.959C156.889 139.9 156.159 140.59 156.159 141.99V144H154.939ZM159.07 144V138.72H160.29V139.52C160.63 139.05 161.09 138.61 161.9 138.61C162.66 138.61 163.2 138.98 163.48 139.54C163.91 138.98 164.46 138.61 165.26 138.61C166.42 138.61 167.11 139.34 167.11 140.63V144H165.9V141C165.9 140.16 165.51 139.71 164.83 139.71C164.16 139.71 163.7 140.17 163.7 141.02V144H162.49V140.99C162.49 140.16 162.1 139.71 161.42 139.71C160.74 139.71 160.29 140.21 160.29 141.02V144H159.07Z" fill="#0E2132"/>
<path d="M111.354 140.354C111.549 140.158 111.549 139.842 111.354 139.646L108.172 136.464C107.976 136.269 107.66 136.269 107.464 136.464C107.269 136.66 107.269 136.976 107.464 137.172L110.293 140L107.464 142.828C107.269 143.024 107.269 143.34 107.464 143.536C107.66 143.731 107.976 143.731 108.172 143.536L111.354 140.354ZM88 140.5H111V139.5H88V140.5Z" fill="black"/>
</svg>
