<svg width="199" height="199" viewBox="0 0 199 199" fill="none" xmlns="http://www.w3.org/2000/svg">
<path d="M135.1 128C133.147 128 131.476 127.302 130.086 125.907C128.695 124.512 128 122.834 128 120.875V78.125C128 76.1656 128.695 74.4883 130.086 73.093C131.476 71.6977 133.147 71 135.1 71H163.5H191.9C193.853 71 195.524 71.6977 196.914 73.093C198.305 74.4883 199 76.1656 199 78.125V120.875C199 122.834 198.305 124.512 196.914 125.907C195.524 127.302 193.853 128 191.9 128H163.5H135.1ZM135.1 120.875H163.5H191.9V85.25H163.5H135.1V120.875Z" fill="#EBC9C9"/>
<path d="M7.1 128C5.1475 128 3.47604 127.302 2.08563 125.907C0.695208 124.512 0 122.834 0 120.875V78.125C0 76.1656 0.695208 74.4883 2.08563 73.093C3.47604 71.6977 5.1475 71 7.1 71H35.5H63.9C65.8525 71 67.524 71.6977 68.9144 73.093C70.3048 74.4883 71 76.1656 71 78.125V120.875C71 122.834 70.3048 124.512 68.9144 125.907C67.524 127.302 65.8525 128 63.9 128H35.5H7.1ZM7.1 120.875H35.5H63.9V85.25H35.5H7.1V120.875Z" fill="#EBC9C9"/>
<path d="M108.279 112L103.263 106.982L107.294 103.021H78V95.9789H107.294L103.263 92.0176L108.279 87L121 99.5L108.279 112Z" fill="#EBC9C9"/>
</svg>
