<svg width="200" height="200" viewBox="0 0 200 200" fill="none" xmlns="http://www.w3.org/2000/svg">
<path d="M79.8406 94.4935C73.2182 94.4935 67.5892 92.1848 62.9535 87.5674C58.3178 82.9499 56 77.3431 56 70.7468C56 64.1504 58.3178 58.5436 62.9535 53.9261C67.5892 49.3087 73.2182 47 79.8406 47H119.575C126.197 47 131.826 49.3087 136.462 53.9261C141.098 58.5436 143.416 64.1504 143.416 70.7468C143.416 77.3431 141.098 82.9499 136.462 87.5674C131.826 92.1848 126.197 94.4935 119.575 94.4935H79.8406ZM79.8406 86.5779H119.575C123.946 86.5779 127.687 85.0278 130.8 81.9275C133.912 78.8272 135.469 75.1003 135.469 70.7468C135.469 66.3932 133.912 62.6663 130.8 59.566C127.687 56.4657 123.946 54.9156 119.575 54.9156H79.8406C75.4698 54.9156 71.7282 56.4657 68.6157 59.566C65.5031 62.6663 63.9469 66.3932 63.9469 70.7468C63.9469 75.1003 65.5031 78.8272 68.6157 81.9275C71.7282 85.0278 75.4698 86.5779 79.8406 86.5779ZM119.575 82.6201C122.886 82.6201 125.701 81.4658 128.019 79.1571C130.336 76.8483 131.495 74.0449 131.495 70.7468C131.495 67.4486 130.336 64.6452 128.019 62.3364C125.701 60.0277 122.886 58.8734 119.575 58.8734C116.264 58.8734 113.449 60.0277 111.131 62.3364C108.814 64.6452 107.655 67.4486 107.655 70.7468C107.655 74.0449 108.814 76.8483 111.131 79.1571C113.449 81.4658 116.264 82.6201 119.575 82.6201Z" fill="#EBC9C9"/>
<path d="M79.8406 153C73.2182 153 67.5892 150.691 62.9535 146.074C58.3178 141.457 56 135.85 56 129.253C56 122.657 58.3178 117.05 62.9535 112.433C67.5892 107.815 73.2182 105.507 79.8406 105.507H119.575C126.197 105.507 131.826 107.815 136.462 112.433C141.098 117.05 143.416 122.657 143.416 129.253C143.416 135.85 141.098 141.457 136.462 146.074C131.826 150.691 126.197 153 119.575 153H79.8406ZM79.8406 145.085H119.575C123.946 145.085 127.687 143.534 130.8 140.434C133.912 137.334 135.469 133.607 135.469 129.253C135.469 124.9 133.912 121.173 130.8 118.073C127.687 114.972 123.946 113.422 119.575 113.422H79.8406C75.4698 113.422 71.7282 114.972 68.6157 118.073C65.5031 121.173 63.9469 124.9 63.9469 129.253C63.9469 133.607 65.5031 137.334 68.6157 140.434C71.7282 143.534 75.4698 145.085 79.8406 145.085ZM79.8406 141.127C83.1518 141.127 85.9663 139.972 88.2842 137.664C90.602 135.355 91.7609 132.552 91.7609 129.253C91.7609 125.955 90.602 123.152 88.2842 120.843C85.9663 118.534 83.1518 117.38 79.8406 117.38C76.5294 117.38 73.7149 118.534 71.3971 120.843C69.0792 123.152 67.9203 125.955 67.9203 129.253C67.9203 132.552 69.0792 135.355 71.3971 137.664C73.7149 139.972 76.5294 141.127 79.8406 141.127Z" fill="#EBC9C9"/>
</svg>
