<svg width="200" height="200" viewBox="0 0 200 200" fill="none" xmlns="http://www.w3.org/2000/svg">
<path d="M76 112H124V108.7C124 104.3 121.8 100.75 117.4 98.05C113 95.35 107.2 94 100 94C92.8 94 87 95.35 82.6 98.05C78.2 100.75 76 104.3 76 108.7V112ZM100 88C103.3 88 106.125 86.825 108.475 84.475C110.825 82.125 112 79.3 112 76C112 72.7 110.825 69.875 108.475 67.525C106.125 65.175 103.3 64 100 64C96.7 64 93.875 65.175 91.525 67.525C89.175 69.875 88 72.7 88 76C88 79.3 89.175 82.125 91.525 84.475C93.875 86.825 96.7 88 100 88ZM40 160V52C40 48.7 41.175 45.875 43.525 43.525C45.875 41.175 48.7 40 52 40H148C151.3 40 154.125 41.175 156.475 43.525C158.825 45.875 160 48.7 160 52V124C160 127.3 158.825 130.125 156.475 132.475C154.125 134.825 151.3 136 148 136H64L40 160ZM58.9 124H148V52H52V130.75L58.9 124Z" fill="#EBC9C9"/>
</svg>
