<svg width="200" height="200" viewBox="0 0 200 200" fill="none" xmlns="http://www.w3.org/2000/svg">
<g clip-path="url(#clip0_272_12918)">
<rect width="200" height="200" fill="white"/>
<rect x="18" y="25" width="74" height="146" rx="1" fill="white" stroke="#BCBCBC" stroke-width="2"/>
<rect x="22" y="93" width="67" height="6" fill="#B2B2B2"/>
<rect x="22" y="104" width="42" height="6" fill="#B2B2B2"/>
<rect x="22" y="120" width="67" height="6" fill="#B2B2B2"/>
<rect x="22" y="131" width="42" height="6" fill="#B2B2B2"/>
<rect x="55" y="43" width="34" height="34" rx="2" fill="#337AB7"/>
<rect x="17" y="24" width="76" height="10" rx="2" fill="#BCBCBC"/>
<path d="M17 156H93V170C93 171.105 92.1046 172 91 172H19C17.8954 172 17 171.105 17 170V156Z" fill="#BCBCBC"/>
<rect x="22" y="43" width="27" height="4" fill="#B2B2B2"/>
<rect x="22" y="52" width="27" height="4" fill="#B2B2B2"/>
<rect x="22" y="61" width="27" height="4" fill="#B2B2B2"/>
<rect x="22" y="70" width="27" height="4" fill="#B2B2B2"/>
<rect x="108" y="25" width="74" height="146" rx="1" fill="white" stroke="#BCBCBC" stroke-width="2"/>
<path d="M107 27C107 25.3431 108.343 24 110 24H180C181.657 24 183 25.3431 183 27V34H107V27Z" fill="#BCBCBC"/>
<path d="M107 156H183V170C183 171.105 182.105 172 181 172H109C107.895 172 107 171.105 107 170V156Z" fill="#BCBCBC"/>
<rect x="112" y="43" width="67" height="6" fill="#B2B2B2"/>
<rect x="112" y="54" width="42" height="6" fill="#B2B2B2"/>
<rect x="112" y="70" width="67" height="6" fill="#B2B2B2"/>
<rect x="112" y="81" width="42" height="6" fill="#B2B2B2"/>
<rect x="112" y="103" width="34" height="34" fill="#E4AB86"/>
<rect x="152" y="103" width="27" height="4" fill="#B2B2B2"/>
<rect x="152" y="112" width="27" height="4" fill="#B2B2B2"/>
<rect x="152" y="121" width="27" height="4" fill="#B2B2B2"/>
<rect x="152" y="130" width="27" height="4" fill="#B2B2B2"/>
<rect x="34" y="149" width="42" height="42" rx="3" fill="white"/>
<rect x="34" y="149" width="42" height="42" rx="3" stroke="#999999" stroke-width="2"/>
<path d="M61.8113 182L59.3793 175.408H50.5473L48.1153 182H44.5312L53.2033 159.056H56.7873L65.4273 182H61.8113ZM56.1153 165.968C56.0513 165.733 55.9339 165.381 55.7633 164.912C55.6139 164.421 55.4646 163.931 55.3153 163.44C55.1659 162.928 55.0486 162.512 54.9633 162.192C54.8566 162.619 54.7286 163.088 54.5793 163.6C54.4513 164.091 54.3233 164.549 54.1953 164.976C54.0673 165.381 53.9606 165.712 53.8753 165.968L51.5713 172.4H58.4193L56.1153 165.968Z" fill="#6E6E6E"/>
<rect x="124" y="149" width="42" height="42" rx="3" fill="white"/>
<rect x="124" y="149" width="42" height="42" rx="3" stroke="#999999" stroke-width="2"/>
<path d="M144.228 159.152C146.169 159.152 147.791 159.333 149.092 159.696C150.415 160.059 151.407 160.667 152.068 161.52C152.751 162.352 153.092 163.461 153.092 164.848C153.092 165.744 152.932 166.544 152.612 167.248C152.292 167.931 151.823 168.507 151.204 168.976C150.607 169.424 149.86 169.723 148.964 169.872V170.032C149.881 170.181 150.703 170.459 151.428 170.864C152.153 171.248 152.729 171.813 153.156 172.56C153.583 173.307 153.796 174.277 153.796 175.472C153.796 176.859 153.465 178.043 152.804 179.024C152.164 179.984 151.236 180.72 150.02 181.232C148.825 181.744 147.396 182 145.732 182H137.54V159.152H144.228ZM144.804 168.688C146.596 168.688 147.823 168.4 148.484 167.824C149.167 167.248 149.508 166.395 149.508 165.264C149.508 164.112 149.103 163.291 148.292 162.8C147.481 162.309 146.191 162.064 144.42 162.064H140.996V168.688H144.804ZM140.996 171.504V179.12H145.188C147.044 179.12 148.335 178.757 149.06 178.032C149.785 177.307 150.148 176.347 150.148 175.152C150.148 174.427 149.988 173.787 149.668 173.232C149.348 172.677 148.804 172.251 148.036 171.952C147.289 171.653 146.265 171.504 144.964 171.504H140.996Z" fill="#6E6E6E"/>
</g>
<defs>
<clipPath id="clip0_272_12918">
<rect width="200" height="200" fill="white"/>
</clipPath>
</defs>
</svg>
