<svg width="200" height="200" viewBox="0 0 200 200" fill="none" xmlns="http://www.w3.org/2000/svg">
<g clip-path="url(#clip0_272_12883)">
<rect width="200" height="200" fill="white"/>
<rect x="12" y="39" width="81" height="144" rx="1" stroke="#A2A2A2" stroke-width="2"/>
<rect x="17.5" y="50.5" width="32" height="22" stroke="#D9D9D9"/>
<path d="M17 73L50 51" stroke="#D9D9D9"/>
<path d="M50 73L17 50" stroke="#D9D9D9"/>
<rect x="55.5" y="50.5" width="32" height="22" stroke="#D9D9D9"/>
<path d="M55 73L88 51" stroke="#D9D9D9"/>
<path d="M88 73L55 50" stroke="#D9D9D9"/>
<rect x="17.5" y="83.5" width="70" height="27" stroke="#D9D9D9"/>
<path d="M17 111L88 83" stroke="#D9D9D9"/>
<path d="M88 111L17 83" stroke="#D9D9D9"/>
<rect x="17" y="121" width="16" height="3" fill="#D9D9D9"/>
<rect x="17" y="126" width="69" height="4" fill="#D9D9D9"/>
<rect x="44" y="132" width="42" height="4" fill="#D9D9D9"/>
<rect x="17" y="138" width="69" height="4" fill="#D9D9D9"/>
<rect x="17" y="152" width="20" height="20" fill="#D9D9D9"/>
<rect x="42" y="152" width="20" height="20" fill="#D9D9D9"/>
<rect x="67" y="152" width="20" height="20" fill="#D9D9D9"/>
<rect x="105" y="39" width="81" height="144" rx="1" stroke="#A2A2A2" stroke-width="2"/>
<rect x="110.5" y="50.5" width="32" height="22" stroke="#D9D9D9"/>
<path d="M110 73L143 51" stroke="#D9D9D9"/>
<path d="M143 73L110 50" stroke="#D9D9D9"/>
<rect x="148.5" y="50.5" width="32" height="22" stroke="#D9D9D9"/>
<path d="M148 73L181 51" stroke="#D9D9D9"/>
<path d="M181 73L148 50" stroke="#D9D9D9"/>
<rect x="110.5" y="83.5" width="32" height="22" stroke="#D9D9D9"/>
<path d="M110 106L143 84" stroke="#D9D9D9"/>
<path d="M143 106L110 83" stroke="#D9D9D9"/>
<rect x="148.5" y="83.5" width="32" height="22" stroke="#D9D9D9"/>
<path d="M148 106L181 84" stroke="#D9D9D9"/>
<path d="M181 106L148 83" stroke="#D9D9D9"/>
<rect x="110" y="116" width="69" height="4" fill="#D9D9D9"/>
<rect x="137" y="122" width="42" height="4" fill="#D9D9D9"/>
<rect x="110" y="128" width="69" height="4" fill="#D9D9D9"/>
<rect x="110.5" y="142.5" width="70" height="27" stroke="#D9D9D9"/>
<path d="M110 170L181 142" stroke="#D9D9D9"/>
<path d="M181 170L110 142" stroke="#D9D9D9"/>
<path d="M132.207 162.707C132.598 162.317 132.598 161.683 132.207 161.293L125.843 154.929C125.453 154.538 124.819 154.538 124.429 154.929C124.038 155.319 124.038 155.953 124.429 156.343L130.086 162L124.429 167.657C124.038 168.047 124.038 168.681 124.429 169.071C124.819 169.462 125.453 169.462 125.843 169.071L132.207 162.707ZM79 163H131.5V161H79V163Z" fill="#00B6FF"/>
<path d="M100 98.5V99.5H101V98.5H100ZM100 62V61H99V62H100ZM127.207 62.7071C127.598 62.3166 127.598 61.6834 127.207 61.2929L120.843 54.9289C120.453 54.5384 119.819 54.5384 119.429 54.9289C119.038 55.3195 119.038 55.9526 119.429 56.3431L125.086 62L119.429 67.6569C119.038 68.0474 119.038 68.6805 119.429 69.0711C119.819 69.4616 120.453 69.4616 120.843 69.0711L127.207 62.7071ZM57.5 99.5H100V97.5H57.5V99.5ZM101 98.5V62H99V98.5H101ZM100 63H126.5V61H100V63Z" fill="#00B6FF"/>
</g>
<defs>
<clipPath id="clip0_272_12883">
<rect width="200" height="200" fill="white"/>
</clipPath>
</defs>
</svg>
