<svg width="200" height="200" viewBox="0 0 200 200" fill="none" xmlns="http://www.w3.org/2000/svg">
<path d="M53.3333 160C49.6667 160 46.5278 158.694 43.9167 156.083C41.3056 153.472 40 150.333 40 146.667V53.3333C40 49.6667 41.3056 46.5278 43.9167 43.9167C46.5278 41.3056 49.6667 40 53.3333 40H146.667C150.333 40 153.472 41.3056 156.083 43.9167C158.694 46.5278 160 49.6667 160 53.3333V146.667C160 150.333 158.694 153.472 156.083 156.083C153.472 158.694 150.333 160 146.667 160H53.3333ZM53.3333 146.667H146.667V66.6667H53.3333V146.667ZM66.6667 100V86.6667H133.333V100H66.6667ZM66.6667 126.667V113.333H106.667V126.667H66.6667Z" fill="#EBC9C9"/>
</svg>
