<svg width="1097" height="427" viewBox="0 0 1097 427" fill="none" xmlns="http://www.w3.org/2000/svg">
<rect width="1097" height="427" fill="#1E1E1E"/>
<g id="SVG ANIMATION MAKING">
<path d="M-4062 -2593C-4062 -2594.1 -4061.1 -2595 -4060 -2595H6438C6439.1 -2595 6440 -2594.1 6440 -2593V3556C6440 3557.1 6439.1 3558 6438 3558H-4060C-4061.1 3558 -4062 3557.1 -4062 3556V-2593Z" fill="#404040"/>
<path d="M-4060 -2594H6438V-2596H-4060V-2594ZM6439 -2593V3556H6441V-2593H6439ZM6438 3557H-4060V3559H6438V3557ZM-4061 3556V-2593H-4063V3556H-4061ZM-4060 3557C-4060.55 3557 -4061 3556.55 -4061 3556H-4063C-4063 3557.66 -4061.66 3559 -4060 3559V3557ZM6439 3556C6439 3556.55 6438.55 3557 6438 3557V3559C6439.66 3559 6441 3557.66 6441 3556H6439ZM6438 -2594C6438.55 -2594 6439 -2593.55 6439 -2593H6441C6441 -2594.66 6439.66 -2596 6438 -2596V-2594ZM-4060 -2596C-4061.66 -2596 -4063 -2594.66 -4063 -2593H-4061C-4061 -2593.55 -4060.55 -2594 -4060 -2594V-2596Z" fill="white" fill-opacity="0.1"/>
<g id="Section 2">
<path d="M-41 -606C-41 -607.105 -40.1046 -608 -39 -608H1289C1290.1 -608 1291 -607.105 1291 -606V566C1291 567.105 1290.1 568 1289 568H-39C-40.1046 568 -41 567.105 -41 566V-606Z" fill="#A5A5A5"/>
<path d="M-39 -607H1289V-609H-39V-607ZM1290 -606V566H1292V-606H1290ZM1289 567H-39V569H1289V567ZM-40 566V-606H-42V566H-40ZM-39 567C-39.5523 567 -40 566.552 -40 566H-42C-42 567.657 -40.6569 569 -39 569V567ZM1290 566C1290 566.552 1289.55 567 1289 567V569C1290.66 569 1292 567.657 1292 566H1290ZM1289 -607C1289.55 -607 1290 -606.552 1290 -606H1292C1292 -607.657 1290.66 -609 1289 -609V-607ZM-39 -609C-40.6569 -609 -42 -607.657 -42 -606H-40C-40 -606.552 -39.5523 -607 -39 -607V-609Z" fill="white" fill-opacity="0.1"/>
<g id="featured-section">
<g id="FEATURED">
<rect width="390" height="427" fill="#6EC2FF"/>
</g>
<g id="carousel">
<rect width="1068" height="335" transform="translate(29 53)" fill="#FF9A9A"/>
</g>
<g id="scrolling dots">
<g id="scroll dots">
<rect id="Rectangle 82" x="150" y="398" width="8" height="8" rx="4" fill="#141414"/>
<rect id="Rectangle 83" x="166" y="398" width="8" height="8" rx="4" fill="#9D9D9D"/>
<rect id="Rectangle 84" x="182" y="398" width="8" height="8" rx="4" fill="#9D9D9D"/>
<rect id="Rectangle 85" x="198" y="398" width="8" height="8" rx="4" fill="#9D9D9D"/>
</g>
</g>
</g>
</g>
</g>
</svg>
