<svg width="390" height="115" viewBox="0 0 390 115" fill="none" xmlns="http://www.w3.org/2000/svg">
<rect width="390" height="115" fill="#1E1E1E"/>
<g id="SVG ANIMATION MAKING">
<path d="M-3271 -438C-3271 -439.105 -3270.1 -440 -3269 -440H7229C7230.1 -440 7231 -439.105 7231 -438V10924C7231 10925.1 7230.1 10926 7229 10926H-3269C-3270.1 10926 -3271 10925.1 -3271 10924V-438Z" fill="#404040"/>
<path d="M-3269 -439H7229V-441H-3269V-439ZM7230 -438V10924H7232V-438H7230ZM7229 10925H-3269V10927H7229V10925ZM-3270 10924V-438H-3272V10924H-3270ZM-3269 10925C-3269.55 10925 -3270 10924.6 -3270 10924H-3272C-3272 10925.7 -3270.66 10927 -3269 10927V10925ZM7230 10924C7230 10924.6 7229.55 10925 7229 10925V10927C7230.66 10927 7232 10925.7 7232 10924H7230ZM7229 -439C7229.55 -439 7230 -438.552 7230 -438H7232C7232 -439.657 7230.66 -441 7229 -441V-439ZM-3269 -441C-3270.66 -441 -3272 -439.657 -3272 -438H-3270C-3270 -438.552 -3269.55 -439 -3269 -439V-441Z" fill="white" fill-opacity="0.1"/>
<g id="header" clip-path="url(#clip0_204_3625)">
<rect width="390" height="115" fill="white"/>
<path id="Rectangle 664" d="M0 10C0 4.47715 4.47715 0 10 0H380C385.523 0 390 4.47715 390 10V115H0V10Z" fill="#FF6C6C"/>
</g>
</g>
<defs>
<clipPath id="clip0_204_3625">
<rect width="390" height="115" fill="white"/>
</clipPath>
</defs>
</svg>
