<svg width="390" height="40" viewBox="0 0 390 40" fill="none" xmlns="http://www.w3.org/2000/svg">
<rect width="390" height="40" fill="#1E1E1E"/>
<g id="SVG ANIMATION MAKING">
<path d="M-3701 -456C-3701 -457.105 -3700.1 -458 -3699 -458H6799C6800.1 -458 6801 -457.105 6801 -456V10906C6801 10907.1 6800.1 10908 6799 10908H-3699C-3700.1 10908 -3701 10907.1 -3701 10906V-456Z" fill="#404040"/>
<path d="M-3699 -457H6799V-459H-3699V-457ZM6800 -456V10906H6802V-456H6800ZM6799 10907H-3699V10909H6799V10907ZM-3700 10906V-456H-3702V10906H-3700ZM-3699 10907C-3699.55 10907 -3700 10906.6 -3700 10906H-3702C-3702 10907.7 -3700.66 10909 -3699 10909V10907ZM6800 10906C6800 10906.6 6799.55 10907 6799 10907V10909C6800.66 10909 6802 10907.7 6802 10906H6800ZM6799 -457C6799.55 -457 6800 -456.552 6800 -456H6802C6802 -457.657 6800.66 -459 6799 -459V-457ZM-3699 -459C-3700.66 -459 -3702 -457.657 -3702 -456H-3700C-3700 -456.552 -3699.55 -457 -3699 -457V-459Z" fill="white" fill-opacity="0.1"/>
<g id="submenu" clip-path="url(#clip0_204_3625)">
<rect width="390" height="40" fill="white"/>
<rect id="Rectangle 665" width="390" height="40" fill="#FF6C6C"/>
</g>
</g>
<defs>
<clipPath id="clip0_204_3625">
<rect width="390" height="40" fill="white"/>
</clipPath>
</defs>
</svg>
