<svg width="390" height="119" viewBox="0 0 390 119" fill="none" xmlns="http://www.w3.org/2000/svg">
<rect width="390" height="119" fill="#1E1E1E"/>
<g id="SVG ANIMATION MAKING">
<path d="M-3655 -535C-3655 -536.105 -3654.1 -537 -3653 -537H6845C6846.1 -537 6847 -536.105 6847 -535V5614C6847 5615.1 6846.1 5616 6845 5616H-3653C-3654.1 5616 -3655 5615.1 -3655 5614V-535Z" fill="#404040"/>
<path d="M-3653 -536H6845V-538H-3653V-536ZM6846 -535V5614H6848V-535H6846ZM6845 5615H-3653V5617H6845V5615ZM-3654 5614V-535H-3656V5614H-3654ZM-3653 5615C-3653.55 5615 -3654 5614.55 -3654 5614H-3656C-3656 5615.66 -3654.66 5617 -3653 5617V5615ZM6846 5614C6846 5614.55 6845.55 5615 6845 5615V5617C6846.66 5617 6848 5615.66 6848 5614H6846ZM6845 -536C6845.55 -536 6846 -535.552 6846 -535H6848C6848 -536.657 6846.66 -538 6845 -538V-536ZM-3653 -538C-3654.66 -538 -3656 -536.657 -3656 -535H-3654C-3654 -535.552 -3653.55 -536 -3653 -536V-538Z" fill="white" fill-opacity="0.1"/>
<g id="header" clip-path="url(#clip0_204_3625)">
<rect width="390" height="115" transform="translate(-384 -97)" fill="white"/>
<path id="Rectangle 664" d="M-384 -87C-384 -92.5228 -379.523 -97 -374 -97H-4C1.52285 -97 6 -92.5228 6 -87V18H-384V-87Z" fill="#FF6C6C"/>
</g>
<g id="submenu" clip-path="url(#clip1_204_3625)">
<rect width="390" height="44" transform="translate(46 18)" fill="white"/>
<rect id="Rectangle 665" x="46" y="18" width="390" height="44" fill="#FF6C6C"/>
</g>
<g id="submenu-button">
<rect width="130" height="44" transform="translate(0 75)" fill="white"/>
<g id="submenu-spec">
<g id="Reviews BUTTON">
<rect id="Rectangle 112" x="260" y="77" width="130" height="38" fill="white"/>
<path id="Reviews" d="M302.389 96.88H299.893V102H298.773V90.512H302.997C304.213 90.512 305.141 90.8 305.813 91.344C306.485 91.904 306.821 92.688 306.821 93.696C306.821 94.608 306.533 95.344 305.973 95.888C305.413 96.432 304.629 96.752 303.637 96.848L307.029 102H305.733L302.389 96.88ZM299.893 91.488V95.904H302.917C303.813 95.904 304.501 95.712 304.981 95.328C305.461 94.944 305.717 94.4 305.717 93.696C305.717 92.992 305.477 92.448 304.997 92.064C304.517 91.68 303.813 91.488 302.917 91.488H299.893ZM311.745 102.16C310.609 102.16 309.697 101.76 309.009 100.96C308.305 100.16 307.969 99.12 307.969 97.824C307.969 97.232 308.049 96.672 308.209 96.16C308.369 95.648 308.593 95.2 308.913 94.816C309.249 94.384 309.649 94.048 310.129 93.824C310.609 93.6 311.121 93.488 311.697 93.488C312.753 93.488 313.601 93.856 314.209 94.592C314.817 95.328 315.121 96.32 315.121 97.552V97.904H308.977C308.977 98.912 309.233 99.712 309.745 100.32C310.257 100.928 310.913 101.232 311.745 101.232C312.353 101.232 312.865 101.072 313.281 100.752C313.697 100.432 313.969 100 314.097 99.424L315.057 99.728C314.833 100.496 314.417 101.104 313.841 101.52C313.265 101.952 312.561 102.16 311.745 102.16ZM311.697 94.416C310.993 94.416 310.401 94.656 309.921 95.136C309.441 95.616 309.137 96.256 309.025 97.072H314.049C314.017 96.272 313.809 95.616 313.393 95.136C312.977 94.656 312.401 94.416 311.697 94.416ZM323.126 93.648L319.942 102H318.934L315.75 93.648H316.87L319.446 100.672L322.022 93.648H323.126ZM325.668 91.936H324.436V90.512H325.668V91.936ZM324.516 93.648H325.572V102H324.516V93.648ZM331.146 102.16C330.01 102.16 329.098 101.76 328.41 100.96C327.706 100.16 327.37 99.12 327.37 97.824C327.37 97.232 327.45 96.672 327.61 96.16C327.77 95.648 327.994 95.2 328.314 94.816C328.65 94.384 329.05 94.048 329.53 93.824C330.01 93.6 330.522 93.488 331.098 93.488C332.154 93.488 333.002 93.856 333.61 94.592C334.218 95.328 334.522 96.32 334.522 97.552V97.904H328.378C328.378 98.912 328.634 99.712 329.146 100.32C329.658 100.928 330.314 101.232 331.146 101.232C331.754 101.232 332.266 101.072 332.682 100.752C333.098 100.432 333.37 100 333.498 99.424L334.458 99.728C334.234 100.496 333.818 101.104 333.242 101.52C332.666 101.952 331.962 102.16 331.146 102.16ZM331.098 94.416C330.394 94.416 329.802 94.656 329.322 95.136C328.842 95.616 328.538 96.256 328.426 97.072H333.45C333.418 96.272 333.21 95.616 332.794 95.136C332.378 94.656 331.802 94.416 331.098 94.416ZM338.3 100.416L340.204 93.648H341.116L343.02 100.432L344.988 93.648H346.044L343.484 102H342.556L340.652 95.232L338.716 102H337.788L335.228 93.648H336.316L338.3 100.416ZM349.899 102.16C349.067 102.16 348.347 101.984 347.707 101.616C347.067 101.248 346.619 100.736 346.363 100.096L347.227 99.52C347.419 100.064 347.755 100.48 348.235 100.8C348.715 101.12 349.275 101.28 349.899 101.28C350.491 101.28 350.987 101.136 351.371 100.848C351.755 100.56 351.963 100.176 351.963 99.696C351.963 99.424 351.899 99.2 351.771 99.024C351.643 98.848 351.435 98.704 351.147 98.576C351.019 98.528 350.859 98.48 350.699 98.432C350.539 98.384 350.187 98.304 349.675 98.176C349.035 98.032 348.603 97.92 348.379 97.84C348.139 97.76 347.947 97.664 347.787 97.568C347.467 97.392 347.243 97.168 347.099 96.896C346.939 96.624 346.875 96.288 346.875 95.904C346.875 95.2 347.147 94.624 347.691 94.176C348.235 93.728 348.939 93.488 349.787 93.488C350.507 93.488 351.147 93.664 351.707 94C352.267 94.352 352.651 94.8 352.875 95.344L352.059 95.888C351.867 95.408 351.563 95.04 351.163 94.784C350.763 94.528 350.283 94.384 349.739 94.384C349.179 94.384 348.731 94.528 348.395 94.784C348.059 95.056 347.899 95.408 347.899 95.856C347.899 96.112 347.947 96.304 348.075 96.464C348.203 96.624 348.395 96.768 348.667 96.88C348.779 96.944 348.923 96.992 349.083 97.024C349.243 97.072 349.547 97.152 349.995 97.248C350.667 97.408 351.131 97.536 351.371 97.616C351.611 97.712 351.819 97.792 351.995 97.888C352.331 98.08 352.587 98.32 352.747 98.608C352.907 98.896 352.987 99.248 352.987 99.632C352.987 100.368 352.683 100.976 352.107 101.456C351.515 101.936 350.779 102.16 349.899 102.16Z" fill="#141414"/>
</g>
<g id="About BUTTON">
<rect id="Rectangle 112_2" x="130" y="77" width="130" height="38" fill="white"/>
<path id="About" d="M174.577 102L179.041 90.512H180.257L184.737 102H183.585L182.289 98.656H176.993L175.697 102H174.577ZM181.905 97.68L179.633 91.792L177.361 97.68H181.905ZM192.558 100.8C192.238 101.248 191.838 101.6 191.374 101.824C190.91 102.048 190.398 102.16 189.854 102.16C189.246 102.16 188.686 102.016 188.206 101.728C187.726 101.44 187.358 101.024 187.102 100.512V102H186.046V90.512H187.102V95.136C187.358 94.624 187.726 94.224 188.206 93.936C188.686 93.648 189.246 93.488 189.854 93.488C190.398 93.488 190.91 93.616 191.374 93.84C191.838 94.064 192.238 94.4 192.558 94.848C192.846 95.232 193.054 95.68 193.214 96.192C193.358 96.704 193.438 97.248 193.438 97.824C193.438 98.4 193.358 98.944 193.214 99.456C193.054 99.968 192.846 100.416 192.558 100.8ZM187.726 95.376C187.502 95.648 187.342 95.968 187.246 96.32C187.134 96.672 187.086 97.072 187.086 97.504V98.192C187.086 98.624 187.134 99.024 187.246 99.376C187.342 99.728 187.502 100.048 187.726 100.304C187.966 100.608 188.254 100.832 188.606 100.992C188.942 101.152 189.294 101.232 189.678 101.232C190.494 101.232 191.15 100.928 191.646 100.304C192.126 99.68 192.382 98.848 192.382 97.824C192.382 96.8 192.126 95.984 191.646 95.36C191.15 94.752 190.494 94.432 189.678 94.432C189.294 94.432 188.942 94.528 188.59 94.688C188.238 94.848 187.95 95.088 187.726 95.376ZM201.179 94.8C201.499 95.184 201.739 95.648 201.899 96.16C202.059 96.672 202.139 97.232 202.139 97.824C202.139 98.432 202.059 98.992 201.899 99.504C201.739 100.016 201.499 100.464 201.179 100.848C200.843 101.28 200.443 101.6 199.963 101.824C199.483 102.048 198.955 102.16 198.379 102.16C197.803 102.16 197.275 102.048 196.795 101.824C196.315 101.6 195.915 101.28 195.579 100.848C195.259 100.464 195.035 100.016 194.875 99.504C194.715 98.992 194.635 98.432 194.635 97.824C194.635 97.232 194.715 96.672 194.875 96.16C195.035 95.648 195.259 95.184 195.579 94.8C195.915 94.384 196.315 94.048 196.795 93.824C197.275 93.6 197.803 93.488 198.379 93.488C198.955 93.488 199.483 93.6 199.963 93.824C200.443 94.048 200.843 94.384 201.179 94.8ZM198.379 94.4C197.563 94.4 196.907 94.72 196.427 95.344C195.931 95.968 195.691 96.8 195.691 97.824C195.691 98.864 195.931 99.696 196.427 100.32C196.907 100.944 197.563 101.248 198.379 101.248C199.179 101.248 199.835 100.944 200.331 100.32C200.811 99.696 201.067 98.864 201.067 97.824C201.067 96.8 200.811 95.968 200.331 95.344C199.835 94.72 199.179 94.4 198.379 94.4ZM209.203 93.648H210.259V102H209.203V100.656C208.931 101.136 208.563 101.504 208.115 101.76C207.651 102.032 207.139 102.16 206.579 102.16C205.715 102.16 205.027 101.904 204.547 101.36C204.051 100.816 203.811 100.08 203.811 99.152V93.648H204.867V98.96C204.867 99.68 205.027 100.224 205.363 100.608C205.699 100.992 206.195 101.184 206.835 101.184C207.155 101.184 207.459 101.12 207.747 100.992C208.035 100.864 208.307 100.688 208.531 100.464C208.755 100.24 208.915 99.984 209.027 99.68C209.139 99.392 209.203 99.072 209.203 98.72V93.648ZM215.002 102.08C214.266 102.08 213.738 101.92 213.418 101.6C213.098 101.28 212.938 100.784 212.938 100.096V94.56H211.546V93.648H212.938V91.232H213.978V93.648H215.994V94.56H213.978V99.936C213.978 100.368 214.058 100.672 214.25 100.864C214.426 101.056 214.746 101.136 215.21 101.136C215.386 101.136 215.562 101.136 215.722 101.104C215.882 101.088 216.042 101.056 216.218 101.008V101.936C216.01 102 215.818 102.032 215.626 102.048C215.434 102.08 215.226 102.08 215.002 102.08Z" fill="#141414"/>
</g>
<g id="PRODUCTS BUTTON">
<rect id="Rectangle 112_3" y="77" width="130" height="38" fill="white"/>
<path id="Products" d="M39.8221 97.552H37.2781V102H35.2301V90.512H39.8221C41.1341 90.512 42.1581 90.832 42.8941 91.44C43.6141 92.048 43.9821 92.912 43.9821 94.032C43.9821 95.152 43.6141 96.032 42.8781 96.64C42.1421 97.248 41.1341 97.552 39.8221 97.552ZM37.2781 92.272V95.792H39.7101C40.4301 95.792 40.9901 95.648 41.3741 95.344C41.7581 95.04 41.9661 94.608 41.9661 94.032C41.9661 93.456 41.7741 93.024 41.3901 92.72C41.0061 92.432 40.4461 92.272 39.7101 92.272H37.2781ZM49.0232 93.552C49.1032 93.552 49.1832 93.568 49.2792 93.568C49.3592 93.568 49.4552 93.584 49.5672 93.584V95.504C49.4392 95.488 49.3112 95.472 49.2152 95.472C49.1032 95.472 48.9912 95.456 48.8632 95.456C48.2232 95.456 47.6952 95.664 47.3112 96.048C46.9112 96.432 46.7192 96.944 46.7192 97.584V102H44.7992V93.6H46.7192V94.848C46.9112 94.464 47.1992 94.144 47.6152 93.904C48.0312 93.68 48.4952 93.552 49.0232 93.552ZM56.6788 94.72C57.0308 95.104 57.2868 95.568 57.4788 96.096C57.6548 96.624 57.7508 97.2 57.7508 97.808C57.7508 98.432 57.6548 99.008 57.4788 99.536C57.2868 100.064 57.0308 100.512 56.6788 100.896C56.2948 101.312 55.8628 101.632 55.3508 101.856C54.8388 102.08 54.2948 102.176 53.7028 102.176C53.0948 102.176 52.5508 102.08 52.0388 101.856C51.5268 101.632 51.0948 101.312 50.7268 100.896C50.3748 100.512 50.1028 100.064 49.9268 99.536C49.7348 99.008 49.6548 98.432 49.6548 97.808C49.6548 97.2 49.7348 96.624 49.9268 96.096C50.1028 95.568 50.3748 95.104 50.7268 94.72C51.0948 94.304 51.5268 94 52.0388 93.776C52.5508 93.552 53.0948 93.44 53.7028 93.44C54.2948 93.44 54.8388 93.552 55.3508 93.776C55.8628 94 56.2948 94.304 56.6788 94.72ZM53.7028 95.056C53.0468 95.056 52.5348 95.312 52.1508 95.792C51.7668 96.288 51.5908 96.96 51.5908 97.808C51.5908 98.672 51.7668 99.344 52.1508 99.824C52.5348 100.32 53.0468 100.56 53.7028 100.56C54.3428 100.56 54.8548 100.32 55.2388 99.824C55.6228 99.344 55.8148 98.672 55.8148 97.808C55.8148 96.96 55.6228 96.288 55.2388 95.792C54.8548 95.312 54.3428 95.056 53.7028 95.056ZM62.1093 102.176C61.5333 102.176 61.0213 102.064 60.5413 101.84C60.0613 101.616 59.6613 101.28 59.3413 100.832C59.0373 100.448 58.8133 99.984 58.6533 99.472C58.4933 98.96 58.4133 98.4 58.4133 97.808C58.4133 97.232 58.4933 96.672 58.6533 96.16C58.8133 95.648 59.0373 95.184 59.3413 94.784C59.6613 94.352 60.0613 94.016 60.5413 93.792C61.0213 93.568 61.5333 93.44 62.1093 93.44C62.6053 93.44 63.0533 93.536 63.4693 93.712C63.8853 93.904 64.2373 94.16 64.5253 94.496V90.512H66.4453V102H64.5253V101.12C64.2373 101.472 63.8853 101.728 63.4693 101.904C63.0533 102.096 62.6053 102.176 62.1093 102.176ZM64.5733 98.064V97.568C64.5733 96.832 64.3813 96.24 63.9973 95.792C63.6133 95.344 63.1173 95.12 62.4933 95.12C61.8213 95.12 61.2933 95.36 60.9093 95.84C60.5253 96.32 60.3493 96.976 60.3493 97.808C60.3493 98.64 60.5253 99.296 60.9093 99.776C61.2933 100.256 61.8213 100.496 62.4933 100.496C63.1013 100.496 63.6133 100.288 63.9973 99.84C64.3813 99.392 64.5733 98.8 64.5733 98.064ZM73.2249 93.6H75.1449V102H73.2249V101.104C72.9049 101.456 72.5689 101.728 72.1849 101.904C71.8009 102.096 71.3849 102.176 70.9369 102.176C70.0569 102.176 69.3689 101.904 68.8569 101.36C68.3449 100.816 68.0889 100.096 68.0889 99.168V93.6H70.0089V98.752C70.0089 99.296 70.1209 99.712 70.3769 100C70.6329 100.288 71.0009 100.432 71.4969 100.432C71.9769 100.432 72.3929 100.272 72.7289 99.92C73.0489 99.584 73.2249 99.136 73.2249 98.592V93.6ZM80.4645 95.088C79.7925 95.088 79.2485 95.344 78.8485 95.824C78.4485 96.32 78.2565 96.976 78.2565 97.808C78.2565 98.64 78.4485 99.312 78.8485 99.792C79.2485 100.272 79.7925 100.512 80.4645 100.512C80.9285 100.512 81.3285 100.384 81.6645 100.096C81.9845 99.824 82.2245 99.424 82.3525 98.912L84.0005 99.744C83.7605 100.48 83.3285 101.072 82.6885 101.52C82.0485 101.968 81.3125 102.176 80.4645 102.176C79.8565 102.176 79.2965 102.08 78.7845 101.856C78.2725 101.632 77.8245 101.328 77.4565 100.912C77.0885 100.528 76.8165 100.064 76.6245 99.536C76.4325 99.008 76.3365 98.432 76.3365 97.808C76.3365 97.2 76.4325 96.624 76.6245 96.096C76.8165 95.568 77.0885 95.104 77.4565 94.704C77.8245 94.304 78.2725 94 78.7845 93.776C79.2965 93.552 79.8565 93.44 80.4645 93.44C81.2965 93.44 82.0325 93.664 82.6565 94.08C83.2805 94.512 83.7125 95.088 83.9685 95.808L82.3525 96.688C82.2245 96.192 81.9845 95.808 81.6645 95.52C81.3285 95.232 80.9285 95.088 80.4645 95.088ZM87.4974 102.096C86.6014 102.096 85.9774 101.936 85.5934 101.584C85.2094 101.232 85.0334 100.672 85.0334 99.888V95.232H83.8654V93.6H85.0334V91.136H86.9214V93.6H88.6814V95.232H86.9214V99.584C86.9214 99.888 86.9854 100.096 87.1454 100.224C87.2894 100.352 87.5934 100.416 88.0414 100.416C88.1694 100.416 88.2814 100.416 88.3934 100.416C88.4894 100.416 88.6334 100.4 88.8254 100.368V101.984C88.6334 102.016 88.4094 102.048 88.1854 102.064C87.9454 102.096 87.7214 102.096 87.4974 102.096ZM92.9356 102.176C92.1036 102.176 91.3516 102.016 90.6636 101.696C89.9596 101.376 89.4316 100.944 89.0796 100.4L90.5196 99.248C90.7596 99.664 91.1116 99.984 91.5596 100.24C92.0076 100.496 92.4716 100.608 92.9516 100.608C93.4316 100.608 93.7996 100.528 94.0876 100.336C94.3756 100.16 94.5196 99.904 94.5196 99.568C94.5196 99.376 94.4556 99.216 94.3436 99.088C94.2156 98.96 94.0076 98.864 93.7196 98.768C93.6556 98.752 93.5116 98.72 93.3036 98.672C93.0956 98.64 92.8236 98.576 92.4876 98.496C91.9436 98.384 91.5276 98.288 91.2556 98.192C90.9676 98.096 90.7276 97.984 90.5356 97.856C90.2316 97.664 90.0076 97.408 89.8636 97.12C89.7036 96.832 89.6396 96.496 89.6396 96.096C89.6396 95.328 89.9436 94.688 90.5516 94.192C91.1596 93.696 91.9596 93.44 92.9196 93.44C93.6236 93.44 94.2956 93.584 94.9196 93.872C95.5276 94.16 95.9916 94.544 96.3116 95.024L95.0156 96.192C94.7596 95.824 94.4556 95.536 94.0716 95.328C93.6876 95.12 93.2556 95.008 92.8076 95.008C92.4076 95.008 92.0876 95.104 91.8636 95.264C91.6236 95.424 91.5116 95.648 91.5116 95.92C91.5116 96.096 91.5596 96.24 91.6556 96.336C91.7516 96.448 91.9276 96.544 92.1516 96.624C92.2316 96.656 92.3276 96.672 92.4556 96.704C92.5836 96.736 92.8236 96.8 93.1756 96.864C93.8636 97.024 94.3436 97.136 94.6156 97.232C94.8716 97.328 95.1116 97.424 95.3196 97.52C95.6716 97.728 95.9436 97.984 96.1196 98.288C96.2956 98.608 96.3916 98.976 96.3916 99.392C96.3916 100.208 96.0556 100.88 95.3996 101.392C94.7436 101.92 93.9276 102.176 92.9356 102.176Z" fill="#141414"/>
</g>
<rect id="Rectangle 113" y="115" width="130" height="4" fill="#255AF6"/>
</g>
<g id="action bar">
<rect id="divider" y="75" width="130" height="2" fill="#9D9D9D"/>
</g>
</g>
</g>
<defs>
<clipPath id="clip0_204_3625">
<rect width="390" height="115" fill="white" transform="translate(-384 -97)"/>
</clipPath>
<clipPath id="clip1_204_3625">
<rect width="390" height="44" fill="white" transform="translate(46 18)"/>
</clipPath>
</defs>
</svg>
