<svg width="95" height="50" viewBox="0 0 95 50" fill="none" xmlns="http://www.w3.org/2000/svg">
<path d="M1.7309 14.0288L4.00643 0H8.5925L10.9556 11.8525H11.3757L13.3011 0H15.7342L13.4586 14.0288H8.85507L6.50952 2.17626H6.08942L4.16397 14.0288H1.7309Z" fill="#141414"/>
<path d="M20.4898 14.2986C19.1945 14.2986 18.1618 13.9029 17.3916 13.1115C16.6331 12.3201 16.2538 11.1631 16.2538 9.64029C16.2538 8.8729 16.353 8.09952 16.5514 7.32015C16.7498 6.52878 17.0648 5.80336 17.4966 5.14389C17.9284 4.48441 18.4768 3.95684 19.142 3.56115C19.8072 3.16547 20.6065 2.96763 21.5401 2.96763C22.4269 2.96763 23.1913 3.17146 23.8331 3.57914C24.4866 3.98681 24.9592 4.60432 25.2509 5.43166C25.5427 6.25899 25.5835 7.30815 25.3735 8.57914L25.2684 9.20863H18.1793L18.2318 7.5H22.9754C23.1154 6.60072 23.0279 5.92926 22.7128 5.48561C22.4094 5.02998 21.9777 4.80216 21.4175 4.80216C20.9157 4.80216 20.4956 4.97002 20.1572 5.30576C19.8188 5.64149 19.5504 6.07314 19.352 6.60072C19.1653 7.1283 19.0253 7.67386 18.9319 8.23741C18.8503 8.80096 18.8094 9.31655 18.8094 9.78417C18.8094 10.6595 18.9728 11.313 19.2995 11.7446C19.6379 12.1643 20.0697 12.3741 20.5948 12.3741C20.9799 12.3741 21.3125 12.2782 21.5926 12.0863C21.8726 11.8945 22.1119 11.6487 22.3102 11.3489C22.5203 11.0492 22.6953 10.7254 22.8354 10.3777L24.8483 11.7086C24.5916 12.1763 24.259 12.6079 23.8506 13.0036C23.4538 13.3873 22.9754 13.699 22.4153 13.9389C21.8668 14.1787 21.225 14.2986 20.4898 14.2986Z" fill="#141414"/>
<path d="M27.4348 14.0288L27.5574 3.2554V3.23741H29.8329L29.7104 11.9964H30.1305L33.0186 3.23741H37.1146L37.2371 11.9964H37.6572L40.3003 3.23741H42.6109V3.2554L39.3026 14.0288H35.0666L34.9091 5.19784H34.489L31.6183 14.0288H27.4348Z" fill="#141414"/>
<path d="M0.505615 30.2158V30.1079L6.75457 16.1871H10.9731L12.7935 30.1079V30.2158H10.1854L8.78505 18.3273H8.36495L3.20124 30.2158H0.505615ZM4.33901 26.5648L5.26673 24.4424H9.83529L10.0628 26.5648H4.33901Z" fill="#141414"/>
<path d="M14.3142 30.2158L15.6445 22.0144C15.7378 21.4748 15.8137 20.9652 15.872 20.4856C15.9304 19.994 15.9595 19.6403 15.9595 19.4245H18.2526C18.2526 19.6643 18.2351 19.952 18.2001 20.2878C18.1767 20.6235 18.1359 20.9472 18.0775 21.259H18.4976C18.626 20.9233 18.801 20.6055 19.0228 20.3058C19.2445 20.006 19.542 19.7662 19.9155 19.5863C20.2889 19.4065 20.7673 19.3165 21.3508 19.3165H21.9634L21.5608 21.7446H20.7907C20.1605 21.7446 19.6471 21.8465 19.2503 22.0504C18.8535 22.2422 18.5385 22.5719 18.3051 23.0396C18.0717 23.5072 17.8908 24.1367 17.7625 24.9281L16.9048 30.2158H14.3142Z" fill="#141414"/>
<path d="M23.2256 30.2158C23.0506 29.8441 22.9281 29.4305 22.8581 28.9748C22.7997 28.5072 22.8347 27.8477 22.9631 26.9964L23.8733 21.3309H22.578L22.8931 19.4245H24.2584L24.696 16.7266H27.1641L26.7265 19.4245H28.3543L28.0568 21.3309H26.4814L25.6062 26.6906C25.4662 27.542 25.4428 28.2314 25.5362 28.759C25.6295 29.2746 25.7871 29.7242 26.0088 30.1079V30.2158H23.2256Z" fill="#141414"/>
<path d="M7.05214 46.6727C5.45344 46.6727 4.20481 46.1691 3.30627 45.1619C2.40773 44.1547 1.95845 42.6978 1.95845 40.7914C1.95845 40.048 2.02847 39.2746 2.1685 38.4712C2.32021 37.6559 2.55359 36.8705 2.86867 36.1151C3.19541 35.3597 3.60967 34.6823 4.11146 34.0827C4.62491 33.4832 5.24922 33.0036 5.9844 32.6439C6.71957 32.2842 7.57143 32.1043 8.53999 32.1043C10.0103 32.1043 11.1539 32.53 11.9708 33.3813C12.7993 34.2206 13.2836 35.4197 13.4236 36.9784L10.8505 37.3921C10.7688 36.3729 10.5355 35.5875 10.1504 35.036C9.76528 34.4844 9.20515 34.2086 8.46998 34.2086C7.92151 34.2086 7.44307 34.3465 7.03464 34.6223C6.62621 34.8981 6.2703 35.2698 5.96689 35.7374C5.67516 36.193 5.43593 36.7026 5.24922 37.2662C5.07418 37.8177 4.94582 38.3873 4.86413 38.9748C4.78245 39.5504 4.7416 40.0899 4.7416 40.5935C4.7416 41.8285 4.95165 42.7998 5.37175 43.5072C5.79185 44.2146 6.422 44.5683 7.26219 44.5683C7.81065 44.5683 8.28327 44.4305 8.68002 44.1547C9.07678 43.8669 9.4152 43.4832 9.69526 43.0036C9.987 42.524 10.2321 42.0024 10.4304 41.4389L12.7585 42.3921C12.4551 43.1595 12.0583 43.8669 11.5682 44.5144C11.0781 45.1619 10.4654 45.6835 9.73027 46.0791C8.9951 46.4748 8.10239 46.6727 7.05214 46.6727Z" fill="#141414"/>
<path d="M13.8834 46.4029L15.6338 35.6115H18.2244L16.474 46.4029H13.8834ZM17.2442 34.2986C16.8241 34.2986 16.5032 34.1907 16.2814 33.9748C16.0597 33.747 15.9489 33.4413 15.9489 33.0576C15.9489 32.6019 16.0889 32.2362 16.369 31.9604C16.649 31.6727 17.0283 31.5288 17.5067 31.5288C17.9152 31.5288 18.2302 31.6427 18.452 31.8705C18.6853 32.0863 18.802 32.3741 18.802 32.7338C18.802 33.2014 18.662 33.5791 18.3819 33.8669C18.1019 34.1547 17.7226 34.2986 17.2442 34.2986Z" fill="#141414"/>
<path d="M20.4359 46.4029C20.2609 46.0312 20.1384 45.6175 20.0683 45.1619C20.01 44.6942 20.045 44.0348 20.1734 43.1835L21.0836 37.518H19.7883L20.1034 35.6115H21.4687L21.9063 32.9137H24.3744L23.9368 35.6115H25.5646L25.2671 37.518H23.6917L22.8165 42.8777C22.6765 43.729 22.6531 44.4185 22.7465 44.946C22.8398 45.4616 22.9974 45.9113 23.2191 46.295V46.4029H20.4359Z" fill="#141414"/>
<path d="M25.7306 50V49.8921C26.1507 49.3645 26.5767 48.759 27.0084 48.0755C27.4519 47.4041 27.8311 46.7326 28.1462 46.0612L26.2558 35.6115H28.7589L29.529 40.2158C29.5874 40.5875 29.6457 40.9772 29.7041 41.3849C29.7741 41.7926 29.8208 42.2842 29.8441 42.8597H30.2642C30.4392 42.2602 30.6085 41.7446 30.7718 41.313C30.9469 40.8813 31.1044 40.5096 31.2444 40.1978L33.3449 35.6115H35.883L31.6645 44.4424C31.0344 45.7614 30.4392 46.8945 29.8791 47.8417C29.3307 48.801 28.8814 49.5204 28.5313 50H25.7306Z" fill="#141414"/>
<g style="mix-blend-mode:luminosity">
<path d="M46.0618 28.9509L63.0893 37.6567L78.7305 47.5978L52.7248 37.3073L46.0618 28.9509Z" stroke="#3B1790"/>
<path d="M76.0223 0.585282L92.1513 22.8699L73.9762 20.3033L58.9108 5.97914L76.0223 0.585282Z" stroke="#C2EC7B"/>
<path d="M73.7545 20.1582L92.4771 23.2554L79.1298 48.3061L63.5214 38.2958L73.7545 20.1582Z" stroke="#D83F41"/>
<path d="M58.9322 5.88226L62.8537 38.2352" stroke="#3B9630" stroke-linecap="round"/>
<path d="M58.9322 5.88226L92.2655 22.5489" stroke="#C2EC7B" stroke-linecap="round"/>
<path d="M45.2067 27.4511L75.5989 0.98053" stroke="#2DCACE" stroke-linecap="round"/>
<path d="M92.4473 23.0149C92.7045 22.9145 92.8317 22.6246 92.7313 22.3674C92.6309 22.1101 92.341 21.983 92.0838 22.0833L92.4473 23.0149ZM52.2512 38.7012L92.4473 23.0149L92.0838 22.0833L51.8876 37.7696L52.2512 38.7012Z" fill="#C46BE1"/>
<path d="M79.5204 48.0391L73.638 20.5881" stroke="#D83F41" stroke-linecap="round"/>
<path d="M58.6329 5.83282C58.633 5.8328 58.633 5.83278 58.633 5.83276L76.0774 0.502141C76.0779 0.502861 76.0782 0.503507 76.0785 0.504059C76.078 0.504976 76.0773 0.50613 76.0765 0.507523L52.2922 37.7318L44.7273 28.01C44.7269 28.0096 44.7264 28.0087 44.7263 28.0068C44.7262 28.0049 44.7266 28.0038 44.7271 28.0031L58.6329 5.83282Z" stroke="#2DCACE"/>
</g>
</svg>
