<svg width="270" height="40" viewBox="0 0 270 40" fill="none" xmlns="http://www.w3.org/2000/svg">
<g style="mix-blend-mode:luminosity">
<path d="M47.265 26C47.6536 26.5625 47.4593 27.5 47.4593 28.0625C47.265 29 46.488 29.9375 44.7397 29.9375C42.7971 29.9375 41.6315 29 41.6315 27.5V24.6875H33.8612V26.75C33.8612 33.125 38.9119 35 44.3512 35C49.5961 35 53.8698 33.3125 54.6469 28.625C55.0354 26.1875 54.8411 24.6875 54.6469 23.9375C53.4813 18.125 42.4086 16.4375 41.6315 13.0625C41.4373 12.5 41.4373 11.9375 41.4373 11.5625C41.6315 10.625 42.2143 9.6875 44.1569 9.6875C45.9052 9.6875 46.8765 10.625 46.8765 12.125V13.8125H54.0641V12.125C54.0641 5.9375 48.4306 5 44.3512 5C39.1062 5 35.0268 6.6875 34.2497 11.1875C34.0555 12.5 33.8612 13.625 34.2497 14.9375C35.6095 20.75 45.9052 22.25 47.265 26ZM141.675 26C142.063 26.75 141.869 27.5 141.675 28.0625C141.48 29 140.703 29.9375 138.761 29.9375C137.012 29.9375 135.847 29 135.847 27.5V24.875H128.077V26.9375C128.077 33.125 133.127 35 138.566 35C143.811 35 148.085 33.3125 148.668 28.625C149.056 26.1875 148.862 24.6875 148.668 24.125C147.502 18.3125 136.624 16.625 135.653 13.4375C135.458 12.875 135.458 12.3125 135.653 11.9375C135.847 11 136.43 10.0625 138.178 10.0625C139.926 10.0625 140.898 11 140.898 12.5V14.1875H148.085V12.3125C148.085 6.3125 142.452 5.375 138.372 5.375C133.321 5.375 129.048 7.0625 128.271 11.5625C128.077 12.6875 128.077 13.8125 128.271 15.3125C130.019 20.75 140.121 22.25 141.675 26ZM201.895 28.4375L201.506 5.9375H208.694V33.6875H198.398L191.016 10.25L191.405 33.5H184.217V5.9375H194.901L201.895 28.4375ZM71.3531 8L67.2736 33.875H59.5033L64.9425 5.9375H77.9579L83.2028 33.875H75.4325L71.3531 8ZM113.701 8L108.651 33.875H101.269L96.4124 8L96.2181 33.875H89.0306L89.6134 5.9375H101.463L105.154 27.6875L108.845 5.9375H120.695L121.277 33.875H114.09C113.896 33.875 113.701 8 113.701 8ZM165.957 29.75C167.899 29.75 168.677 28.4375 168.677 27.6875C168.677 27.3125 168.677 26.9375 168.677 26.5625V5.75H176.058V25.8125C176.058 26.375 176.058 27.3125 176.058 27.6875C175.476 32.9375 171.202 34.625 165.957 34.625C160.712 34.625 156.438 32.9375 155.855 27.6875C155.855 27.3125 155.661 26.375 155.855 25.8125V5.75H163.237V26.5625C163.237 26.9375 163.237 27.3125 163.237 27.6875C163.432 28.4375 164.014 29.75 165.957 29.75ZM226.566 29.375C228.702 29.375 229.285 28.0625 229.479 27.3125C229.479 26.9375 229.674 26.5625 229.479 26.1875V22.25H226.566V18.125H236.861V25.625C236.861 26.1875 236.861 26.5625 236.667 27.5C236.084 32.5625 231.616 34.4375 226.371 34.4375C221.126 34.4375 216.658 32.5625 216.076 27.5C215.881 26.5625 215.881 26.1875 215.881 25.625V13.8125C215.881 13.25 215.881 12.5 216.076 11.9375C216.658 6.6875 221.126 5 226.371 5C231.422 5 236.084 6.6875 236.473 11.9375C236.667 12.875 236.473 13.8125 236.473 13.8125V14.75H229.091V13.25C229.091 13.25 229.091 12.5 228.897 12.125C228.702 11.5625 228.12 10.0625 225.983 10.0625C223.846 10.0625 223.263 11.375 223.069 12.125C222.875 12.5 222.875 13.0625 222.875 13.4375V26.1875C222.875 26.5625 222.875 26.9375 222.875 27.3125C223.652 28.0625 224.429 29.375 226.566 29.375Z" fill="black"/>
</g>
</svg>
