<svg viewBox="0 0 width height" fill="none" xmlns="http://www.w3.org/2000/svg">
<path d="M56.4721 12.7558V0.225754H54.2018V7.13041L53.6542 5.36129L52.0937 0.225754H49.6995V12.7558H51.9943V5.86959L52.6062 7.61883L54.3288 12.7558H56.4721ZM46.0693 8.78025H45.0397L45.6271 3.90738L46.0693 8.78025ZM49.0876 12.7558L47.1478 0.225754H44.1478L42.1819 12.7558H44.5333L44.7551 10.7425H46.2957L46.4869 12.7558H49.0876ZM41.8576 9.83945C41.8576 8.22084 40.7225 6.90465 39.6271 5.68076C38.6955 4.53353 38.0468 4.00677 38.0468 2.80275C38.0389 2.70773 38.0525 2.61221 38.0868 2.52238C38.1211 2.43254 38.1753 2.35038 38.246 2.28121C38.3166 2.21203 38.4021 2.15738 38.4969 2.12077C38.5917 2.08417 38.6938 2.06643 38.7964 2.0687C39.1819 2.0687 39.465 2.33279 39.465 2.77862V4.01955H41.7154V2.9348C41.7154 1.16568 40.5389 0 38.7964 0C36.6072 0 35.5333 1.46669 35.5333 3.17901C35.5333 4.74083 36.7694 6.24585 37.7822 7.29653C38.7001 8.35004 39.3441 9.12101 39.3441 10.1362C39.3441 10.663 39.0795 10.964 38.5532 10.964C38.0269 10.964 37.7225 10.6246 37.7225 10.1121V8.95489H35.4721V10.0467C35.4721 11.9081 36.6684 13 38.674 13C40.4792 13 41.8576 11.8144 41.8576 9.83945Z" fill="#2B2B2B"/>
<path d="M60.4721 29.6959V26.9891H57.4031V22.9838H59.4184V20.5758H57.4031V16.8938H60.4689V14.2726H54.6579V29.6994L60.4721 29.6959ZM53.6915 26.1101C53.6915 24.118 52.4905 22.498 51.3331 20.9917C50.3457 19.5797 49.6594 18.9314 49.6594 17.4495C49.6513 17.3325 49.6659 17.2149 49.7024 17.1043C49.7389 16.9938 49.7964 16.8927 49.8713 16.8076C49.9461 16.7225 50.0367 16.6552 50.1371 16.6102C50.2375 16.5652 50.3455 16.5433 50.4542 16.5461C50.8605 16.5461 51.1615 16.8711 51.1615 17.4198V18.9471H53.5426V17.6121C53.5426 15.4347 52.2979 14 50.4542 14C48.1379 14 47 15.8052 47 17.9126C47 19.8349 48.3095 21.6872 49.381 22.9803C50.3522 24.277 51.0321 25.2259 51.0321 26.4753C51.0321 27.1236 50.7536 27.4941 50.1968 27.4941C49.64 27.4941 49.3163 27.0765 49.3163 26.4456V25.0214H46.9368V26.3652C46.9368 28.6562 48.201 30 50.3247 30C52.2331 30 53.6915 28.5408 53.6915 26.1101ZM43.29 26.6186C43.2932 26.7101 43.2784 26.8014 43.2467 26.8863C43.215 26.9713 43.167 27.048 43.1058 27.1116C43.0447 27.1751 42.9718 27.224 42.892 27.2549C42.8121 27.2859 42.7271 27.2984 42.6425 27.2914C42.5571 27.2982 42.4713 27.2857 42.3906 27.2549C42.3098 27.2241 42.2359 27.1756 42.1733 27.1124C42.1108 27.0491 42.0611 26.9726 42.0274 26.8877C41.9936 26.8027 41.9766 26.7111 41.9772 26.6186V17.3569C41.9768 17.2646 41.994 17.1732 42.0279 17.0884C42.0617 17.0037 42.1115 16.9274 42.1739 16.8643C42.2364 16.8013 42.3103 16.7529 42.3909 16.7222C42.4716 16.6915 42.5572 16.6791 42.6425 16.6859C42.727 16.6789 42.8118 16.6913 42.8916 16.7222C42.9713 16.7531 43.0441 16.8018 43.1052 16.8651C43.1663 16.9285 43.2144 17.005 43.2462 17.0897C43.278 17.1745 43.293 17.2655 43.29 17.3569V26.6186ZM46.1 26.4334V17.5422C46.1 15.4347 44.5768 14 42.6474 14C40.7179 14 39.1721 15.4347 39.1721 17.5422V26.4334C39.1721 28.5408 40.6953 30 42.6474 30C44.5995 30 46.1 28.5408 46.1 26.4334ZM38.1005 26.5033V14.2709H35.3488V26.6186C35.331 26.7894 35.2556 26.9472 35.1369 27.0617C35.0182 27.1763 34.8646 27.2396 34.7054 27.2396C34.5462 27.2396 34.3926 27.1763 34.2739 27.0617C34.1552 26.9472 34.0797 26.7894 34.062 26.6186V23.5623H31.4721V26.5033C31.4721 28.5636 32.8464 29.9983 34.7758 29.9983C36.7053 29.9983 38.1005 28.5618 38.1005 26.5033Z" fill="#2B2B2B"/>
<path d="M61.4721 38.8497V31.1389H59.2807L58.7527 34.1603L58.5535 35.7235L58.3543 34.1603L57.8194 31.1389H55.5891V38.8497H57.0832V33.3154L57.3343 35.1442L57.8861 38.8497H58.9689L59.5795 35.1442L59.8564 33.3154V38.8497H61.4721ZM54.847 37.277V31.1389H53.2133V37.3093C53.2133 37.5181 53.041 37.6457 52.8039 37.6457C52.7531 37.6476 52.7023 37.6401 52.6549 37.6239C52.6074 37.6076 52.5644 37.5829 52.5284 37.5512C52.4924 37.5196 52.4643 37.4818 52.4459 37.4401C52.4275 37.3985 52.4192 37.3539 52.4214 37.3093V31.1389H50.7141V37.2752C50.7141 38.2521 51.6295 39 52.8059 39C54.0072 39 54.8519 38.2477 54.8519 37.2752M50.1264 38.848V37.4945H48.2378V35.4919H49.4779V34.2879H48.2378V32.4469H50.1244V31.1363H46.5484V38.8497L50.1264 38.848ZM45.9537 37.055C45.9537 36.059 45.2146 35.249 44.5023 34.4958C43.8947 33.7899 43.4724 33.4657 43.4724 32.7248C43.4673 32.6662 43.4763 32.6075 43.4988 32.5522C43.5212 32.4969 43.5566 32.4463 43.6027 32.4038C43.6488 32.3612 43.7045 32.3276 43.7663 32.3051C43.8281 32.2826 43.8946 32.2717 43.9615 32.273C44.2115 32.273 44.3968 32.4356 44.3968 32.7099V33.4736H45.862V32.806C45.862 31.7173 45.096 31 43.9615 31C42.536 31 41.8358 31.9026 41.8358 32.9563C41.8358 33.9174 42.6416 34.8436 43.301 35.4902C43.8987 36.1385 44.3171 36.6129 44.3171 37.2377C44.3171 37.5618 44.1457 37.7471 43.8031 37.7471C43.4604 37.7471 43.2612 37.5382 43.2612 37.2228V36.5107H41.7969V37.1826C41.7969 38.3281 42.5749 39 43.8818 39C45.0562 39 45.9537 38.2704 45.9537 37.055ZM41.2421 37.2752V31.1389H39.6055V37.3093C39.6055 37.5181 39.4341 37.6457 39.1961 37.6457C39.1452 37.6476 39.0944 37.6401 39.047 37.6239C38.9995 37.6076 38.9565 37.5829 38.9205 37.5512C38.8845 37.5196 38.8565 37.4818 38.8381 37.4401C38.8196 37.3985 38.8113 37.3539 38.8135 37.3093V31.1389H37.1112V37.2752C37.1112 38.2477 38.0216 39 39.1961 39C40.3974 39 41.2421 38.2477 41.2421 37.2752ZM36.3611 38.848V31.1389H34.1697L33.6417 34.1603L33.4425 35.7235L33.2433 34.1603L32.7024 31.1389H30.4721V38.8497H31.9663V33.3154L32.2173 35.1442L32.7721 38.8497H33.8539L34.4615 35.1442L34.7385 33.3154V38.8497L36.3611 38.848Z" fill="#2B2B2B"/>
<path d="M61.4721 42.0532V40.191H56.0879V42.0532H57.6759V50.7934H59.8841V42.0532H61.4721ZM53.3951 44.4247C53.3951 44.7756 53.257 44.9053 53.016 44.9053H52.4637V41.9102H53.016C53.257 41.9102 53.3951 42.0376 53.3951 42.3908V44.4247ZM55.8469 50.7922V50.7441C55.6605 50.1869 55.5618 49.6079 55.5538 49.0249V46.9681C55.5538 46.4431 55.1733 45.9493 54.6041 45.6634C55.1733 45.3606 55.516 44.8837 55.516 44.3575V42.2442C55.516 40.8278 54.3943 40.191 53.3013 40.191H50.236V50.7934H52.4624V46.4791H52.9834C53.2948 46.4791 53.4498 46.7651 53.4498 47.0354V49.1535C53.4498 49.8214 53.64 50.7934 53.9853 50.7934L55.8469 50.7922ZM47.1302 47.4282H46.2496L46.7498 43.305L47.1302 47.4282ZM49.7018 50.7922L48.0435 40.191H45.4862L43.8148 50.7934H45.8171L46.0073 49.0898H47.3191L47.4742 50.7934L49.7018 50.7922ZM41.5024 41.9222V40.191H36.9624V50.7934H39.177V46.3037H40.8341V44.5653H39.1718V41.9222H41.5024ZM33.7863 48.6753C33.7889 48.7382 33.777 48.801 33.7515 48.8594C33.7259 48.9178 33.6873 48.9705 33.6381 49.0142C33.5889 49.0579 33.5302 49.0915 33.466 49.1128C33.4017 49.1341 33.3333 49.1426 33.2652 49.1378C33.1965 49.1423 33.1276 49.1336 33.0628 49.1124C32.998 49.0911 32.9386 49.0577 32.8884 49.0143C32.8383 48.9708 32.7984 48.9183 32.7713 48.86C32.7442 48.8016 32.7305 48.7388 32.7311 48.6753V42.3079C32.7307 42.2445 32.7446 42.1818 32.7717 42.1236C32.7989 42.0654 32.8388 42.013 32.8889 41.9697C32.9391 41.9264 32.9984 41.8931 33.0631 41.8719C33.1279 41.8507 33.1967 41.8421 33.2652 41.8465C33.3332 41.8418 33.4015 41.8503 33.4656 41.8715C33.5298 41.8928 33.5884 41.9262 33.6376 41.9698C33.6868 42.0133 33.7254 42.0659 33.751 42.1242C33.7767 42.1825 33.7887 42.2451 33.7863 42.3079V48.6753ZM36.0478 48.5479V42.4352C36.0478 40.9863 34.822 40 33.2678 40C31.7136 40 30.4721 40.9863 30.4721 42.4352V48.5479C30.4721 49.9968 31.698 51 33.2678 51C34.8376 51 36.0478 49.9968 36.0478 48.5479Z" fill="#2B2B2B"/>
</svg>
