<svg width="69" height="70" viewBox="0 0 69 70" fill="none" xmlns="http://www.w3.org/2000/svg">
<path d="M49 17.6619V0.312582H45.8649V9.87287L45.1085 7.42333L42.9537 0.312582H39.6474V17.6619H42.8163V8.12713L43.6614 10.5491L46.0402 17.6619H49ZM34.6342 12.1573H33.2124L34.0236 5.41022L34.6342 12.1573ZM38.8024 17.6619L36.1236 0.312582H31.9807L29.266 17.6619H32.5131L32.8194 14.8742H34.9468L35.2109 17.6619H38.8024ZM28.8181 13.6239C28.8181 11.3827 27.2505 9.56029 25.7379 7.86566C24.4513 6.2772 23.5555 5.54784 23.5555 3.88073C23.5446 3.74916 23.5634 3.61691 23.6108 3.49252C23.6581 3.36814 23.733 3.25438 23.8306 3.15859C23.9281 3.06281 24.0462 2.98713 24.1771 2.93645C24.3081 2.88577 24.449 2.86121 24.5907 2.86435C25.1231 2.86435 25.514 3.23001 25.514 3.84731V5.56553H28.6216V4.06357C28.6216 1.61402 26.997 0 24.5907 0C21.5676 0 20.0845 2.0308 20.0845 4.4017C20.0845 6.56422 21.7915 8.6481 23.1901 10.1029C24.4576 11.5616 25.3471 12.6291 25.3471 14.0347C25.3471 14.7641 24.9816 15.1809 24.2548 15.1809C23.5281 15.1809 23.1077 14.711 23.1077 14.0013V12.3991H20V13.9109C20 16.4882 21.6521 18 24.4217 18C26.9146 18 28.8181 16.3585 28.8181 13.6239Z" fill="#2B2B2B"/>
<path d="M54 41.5629V37.6718H49.8727V31.9143H52.5829V28.4527H49.8727V23.1599H53.9956V19.3919H46.1808V41.5679L54 41.5629ZM44.8813 36.4083C44.8813 33.5446 43.2661 31.2159 41.7096 29.0506C40.3818 27.0209 39.4588 26.0889 39.4588 23.9587C39.4478 23.7905 39.4675 23.6214 39.5166 23.4625C39.5656 23.3035 39.643 23.1582 39.7437 23.0359C39.8444 22.9135 39.9661 22.8169 40.1012 22.7521C40.2362 22.6874 40.3815 22.656 40.5276 22.66C41.074 22.66 41.4789 23.1272 41.4789 23.916V26.1115H44.681V24.1923C44.681 21.0624 43.007 19 40.5276 19C37.4126 19 35.8823 21.5949 35.8823 24.6244C35.8823 27.3876 37.6433 30.0503 39.0844 31.9092C40.3905 33.7732 41.3048 35.1372 41.3048 36.9333C41.3048 37.8652 40.9303 38.3978 40.1815 38.3978C39.4327 38.3978 38.9973 37.7974 38.9973 36.8906V34.8433H35.7974V36.775C35.7974 40.0683 37.4975 42 40.3535 42C42.92 42 44.8813 39.9025 44.8813 36.4083ZM30.893 37.1393C30.8973 37.2708 30.8775 37.402 30.8348 37.5241C30.7921 37.6462 30.7276 37.7566 30.6454 37.8479C30.5631 37.9392 30.4651 38.0094 30.3578 38.054C30.2504 38.0985 30.136 38.1164 30.0223 38.1064C29.9074 38.1161 29.792 38.0982 29.6834 38.054C29.5748 38.0097 29.4754 37.9399 29.3913 37.849C29.3073 37.7581 29.2404 37.6482 29.195 37.526C29.1496 37.4038 29.1267 37.2722 29.1276 37.1393V23.8256C29.127 23.6929 29.1502 23.5615 29.1957 23.4396C29.2412 23.3178 29.3081 23.2081 29.3921 23.1175C29.4762 23.0269 29.5755 22.9573 29.684 22.9132C29.7924 22.869 29.9076 22.8513 30.0223 22.861C30.1359 22.851 30.25 22.8688 30.3572 22.9132C30.4644 22.9576 30.5623 23.0276 30.6445 23.1186C30.7267 23.2097 30.7913 23.3197 30.8341 23.4415C30.8769 23.5633 30.897 23.6942 30.893 23.8256V37.1393ZM34.672 36.873V24.0919C34.672 21.0624 32.6236 19 30.0288 19C27.434 19 25.3552 21.0624 25.3552 24.0919V36.873C25.3552 39.9025 27.4035 42 30.0288 42C32.6541 42 34.672 39.9025 34.672 36.873ZM23.9141 36.9735V19.3894H20.2135V37.1393C20.1896 37.3848 20.0881 37.6115 19.9285 37.7762C19.7689 37.9409 19.5623 38.0319 19.3482 38.0319C19.1341 38.0319 18.9275 37.9409 18.7679 37.7762C18.6083 37.6115 18.5068 37.3848 18.4829 37.1393V32.7457H15V36.9735C15 39.9351 16.8481 41.9975 19.4429 41.9975C22.0377 41.9975 23.9141 39.9326 23.9141 36.9735Z" fill="#2B2B2B"/>
<path d="M56 53.7934V43.191H52.9603L52.228 47.3455L51.9516 49.4948L51.6753 47.3455L50.9333 43.191H47.8397V53.7934H49.9122V46.1837L50.2604 48.6982L51.0259 53.7934H52.5278L53.3748 48.6982L53.7589 46.1837V53.7934H56ZM46.8103 51.6308V43.191H44.5443V51.6753C44.5443 51.9624 44.3053 52.1378 43.9764 52.1378C43.9058 52.1404 43.8354 52.1302 43.7696 52.1078C43.7038 52.0855 43.6441 52.0515 43.5942 52.008C43.5443 51.9645 43.5054 51.9124 43.4798 51.8552C43.4543 51.7979 43.4427 51.7367 43.4458 51.6753V43.191H41.0776V51.6284C41.0776 52.9716 42.3474 54 43.9792 54C45.6455 54 46.8172 52.9656 46.8172 51.6284M40.2624 53.791V51.93H37.6427V49.1764H39.3629V47.5209H37.6427V44.9895H40.2596V43.1874H35.2993V53.7934L40.2624 53.791ZM34.4744 51.3257C34.4744 49.9561 33.4492 48.8424 32.4613 47.8068C31.6185 46.8361 31.0326 46.3903 31.0326 45.3716C31.0256 45.2911 31.0381 45.2102 31.0693 45.1342C31.1004 45.0582 31.1495 44.9887 31.2134 44.9302C31.2773 44.8717 31.3546 44.8255 31.4403 44.7945C31.526 44.7635 31.6183 44.7485 31.711 44.7504C32.0578 44.7504 32.3148 44.9739 32.3148 45.3511V46.4012H34.3473V45.4833C34.3473 43.9863 33.2848 43 31.711 43C29.7338 43 28.7625 44.241 28.7625 45.6899C28.7625 47.0115 29.8803 48.2849 30.795 49.174C31.624 50.0654 32.2043 50.7178 32.2043 51.5768C32.2043 52.0225 31.9666 52.2772 31.4913 52.2772C31.016 52.2772 30.7397 51.9901 30.7397 51.5564V50.5772H28.7086V51.5011C28.7086 53.0761 29.7877 54 31.6005 54C33.2295 54 34.4744 52.9968 34.4744 51.3257ZM27.939 51.6284V43.191H25.6688V51.6753C25.6688 51.9624 25.4312 52.1378 25.101 52.1378C25.0304 52.1404 24.96 52.1302 24.8942 52.1078C24.8284 52.0855 24.7686 52.0515 24.7187 52.008C24.6689 51.9645 24.6299 51.9124 24.6044 51.8552C24.5788 51.7979 24.5673 51.7367 24.5704 51.6753V43.191H22.2091V51.6284C22.2091 52.9656 23.4719 54 25.101 54C26.7673 54 27.939 52.9656 27.939 51.6284ZM21.1686 53.791V43.191H18.1289L17.3966 47.3455L17.1202 49.4948L16.8439 47.3455L16.0936 43.191H13V53.7934H15.0726V46.1837L15.4207 48.6982L16.1904 53.7934H17.6909L18.5337 48.6982L18.9178 46.1837V53.7934L21.1686 53.791Z" fill="#2B2B2B"/>
<path d="M56 57.7998V55.2605H48.5315V57.7998H50.7343V69.7182H53.7972V57.7998H56ZM44.7964 61.0337C44.7964 61.5121 44.6049 61.6891 44.2706 61.6891H43.5044V57.6048H44.2706C44.6049 57.6048 44.7964 57.7785 44.7964 58.2602V61.0337ZM48.1973 69.7166V69.651C47.9388 68.8912 47.8019 68.1017 47.7907 67.3067V64.502C47.7907 63.786 47.263 63.1127 46.4733 62.7228C47.263 62.31 47.7383 61.6596 47.7383 60.942V58.0603C47.7383 56.1288 46.1824 55.2605 44.6663 55.2605H40.4144V69.7182H43.5026V63.8352H44.2254C44.6573 63.8352 44.8723 64.2251 44.8723 64.5937V67.482C44.8723 68.3929 45.1361 69.7182 45.615 69.7182L48.1973 69.7166ZM36.1064 65.1294H34.8849L35.5788 59.5069L36.1064 65.1294ZM39.6735 69.7166L37.3732 55.2605H33.826L31.5076 69.7182H34.285L34.5488 67.3952H36.3685L36.5835 69.7182L39.6735 69.7166ZM28.3001 57.6212V55.2605H22.0026V69.7182H25.0745V63.596H27.3731V61.2254H25.0673V57.6212H28.3001ZM17.5971 66.8299C17.6007 66.9158 17.5842 67.0013 17.5488 67.0809C17.5133 67.1606 17.4597 67.2325 17.3915 67.2921C17.3233 67.3517 17.2419 67.3975 17.1528 67.4265C17.0636 67.4556 16.9687 67.4672 16.8743 67.4607C16.7791 67.4668 16.6835 67.455 16.5935 67.426C16.5036 67.397 16.4213 67.3514 16.3517 67.2922C16.2821 67.233 16.2268 67.1613 16.1892 67.0818C16.1517 67.0022 16.1327 66.9165 16.1334 66.8299V58.1471C16.1329 58.0607 16.1521 57.9752 16.1898 57.8958C16.2275 57.8165 16.2828 57.745 16.3524 57.686C16.4219 57.6269 16.5042 57.5815 16.594 57.5526C16.6838 57.5237 16.7792 57.5119 16.8743 57.518C16.9686 57.5115 17.0633 57.5231 17.1523 57.5521C17.2413 57.581 17.3226 57.6267 17.3908 57.6861C17.459 57.7454 17.5127 57.8172 17.5482 57.8966C17.5837 57.9761 17.6004 58.0614 17.5971 58.1471V66.8299ZM20.7341 66.6563V58.3208C20.7341 56.345 19.0337 55 16.8779 55C14.7221 55 13 56.345 13 58.3208V66.6563C13 68.632 14.7004 70 16.8779 70C19.0553 70 20.7341 68.632 20.7341 66.6563Z" fill="#2B2B2B"/>
</svg>
