<svg width="148" height="40" viewBox="0 0 148 40" fill="none" xmlns="http://www.w3.org/2000/svg">
<g style="mix-blend-mode:luminosity">
<path fill-rule="evenodd" clip-rule="evenodd" d="M140.596 27.8128V8.99939H136.289V27.8128H140.596ZM45 8.99974L52.2534 27.8131V27.8697H57.1266L64.38 9.05641H59.8466L54.86 22.2597H54.7466L49.7034 8.99974H45ZM89.538 17.6131H91.408V24.2997C91.408 27.3031 93.3346 28.2097 95.488 28.2097C97.2446 28.2097 98.378 27.7563 99.3412 27.0197V24.1863C98.548 24.5263 97.868 24.6963 97.188 24.6963C96.168 24.6963 95.658 24.2431 95.658 23.1097V17.6131H99.1712V14.6097H95.658V10.9264H92.9946L92.5414 12.683C92.2014 13.9297 91.8046 14.6097 90.5014 14.8364L89.538 15.0064V17.6131ZM114.586 22.6557H114.7L117.25 14.6091H121.16L116.966 27.8691H112.773L110.62 19.8791H110.506L108.41 27.8691H104.216L100.023 14.6091H104.33L106.88 22.6557H106.993L109.09 14.6091H112.546L114.586 22.6557ZM147 8.99939V27.8128H142.694V8.99939H147ZM81.8325 19.1426L84.3825 19.5958C87.2725 20.0492 88.9158 21.2958 88.9725 23.9026C88.9725 26.6792 86.6491 28.2092 83.0225 28.2092C79.4525 28.2092 76.7325 26.7358 76.5058 23.5058L78.6591 23.4492H80.2458C80.4158 24.7526 81.4358 25.4326 83.0225 25.4326C84.1558 25.4326 84.9491 25.0358 84.9491 24.2992C84.9491 23.6192 84.5525 23.2792 83.4758 23.1092L81.4358 22.7692C78.3758 22.3158 76.7325 21.2392 76.7325 18.6326C76.7325 16.0258 78.9425 14.2126 82.5691 14.1559C86.3658 14.1559 88.5758 15.8558 88.8591 18.6892L85.2891 18.8026C85.0625 17.6692 84.1558 16.9892 82.5125 16.9892C81.4358 16.9892 80.7558 17.4426 80.7558 18.1792C80.7558 18.7458 81.1525 19.0292 81.8325 19.1426ZM71.7469 23.4485C71.2369 24.4685 70.3303 24.9218 68.9703 24.9218C67.3269 24.9218 65.9669 23.9018 65.8535 22.1452H75.4303V20.8418C75.4303 17.2152 73.1069 14.2119 68.7435 14.2119C64.6637 14.2119 61.6603 17.2152 61.6603 21.4085C61.6603 25.6018 64.6637 28.2085 68.8569 28.2085C72.3135 28.2085 74.6935 26.5085 75.3735 23.5052H75.1469H71.7469V23.4485ZM68.7435 17.3286C70.3869 17.3286 71.2369 18.5186 71.2935 19.8218H65.9669C66.1935 18.4618 66.9869 17.3286 68.7435 17.3286ZM128.131 24.9218C129.49 24.9218 130.397 24.4685 130.907 23.4485V23.5052H134.307H134.534C133.854 26.5085 131.474 28.2085 128.017 28.2085C123.824 28.2085 120.821 25.6018 120.821 21.4085C120.821 17.2152 123.824 14.2119 127.904 14.2119C132.267 14.2119 134.59 17.2152 134.59 20.8418V22.1452H125.014C125.127 23.9018 126.487 24.9218 128.131 24.9218ZM130.397 19.8218C130.341 18.5186 129.49 17.3286 127.847 17.3286C126.147 17.3286 125.354 18.4618 125.071 19.8218H130.397Z" fill="#033952"/>
<path fill-rule="evenodd" clip-rule="evenodd" d="M0 2.55206C0 1.13425 1.27603 0 2.76474 0H32.1843C33.7438 0 34.9491 1.13425 34.9491 2.55206V19.8494C34.9491 24.3155 32.2552 28.9943 26.9385 33.8857C23.1812 37.2885 19.424 39.5569 19.2823 39.6278C18.3606 40.124 17.2265 40.124 16.3048 39.6278C16.278 39.6009 16.1157 39.5 15.844 39.3309C14.6834 38.6086 11.5242 36.6428 8.36509 33.8857C2.83563 29.0651 0 24.3155 0 19.7785V2.55206ZM7.65628 8.57742L14.958 27.5762H19.8494L27.222 8.57742H22.6851L17.6518 21.9049H17.51L12.4059 8.57742H7.65628Z" fill="#DDC04A"/>
</g>
</svg>
