<svg width="470" height="110" viewBox="0 0 470 110" fill="none" xmlns="http://www.w3.org/2000/svg">
<path d="M242.672 85.2676H218.089V34.0315L199.955 85.2676H189.002L170.869 34.0315V85.2676H146.285V4.0931H180.24L194.479 45.4714L208.718 4.0931H242.672V85.2676Z" fill="#0EA832"/>
<path d="M254.768 108.147L257.811 88.6752C259.149 89.4054 260.975 89.7705 262.435 89.7705C266.695 89.7705 269.372 89.0403 270.102 87.4582L270.589 86.2412L247.466 26.4861H270.589L281.786 60.0755L293.104 26.4861H316.227L290.67 92.5696C285.437 106.2 275.701 108.756 263.287 109.121C261.705 109.121 256.837 108.756 254.768 108.147Z" fill="#0EA832"/>
<path d="M360.667 86.728C335.84 86.728 316.611 69.6899 316.611 44.7412C316.611 19.6708 335.84 2.75439 360.667 2.75439C382.573 2.75439 393.283 15.1679 398.151 26.3644L376.975 36.2221C374.906 29.8937 368.577 24.4171 360.667 24.4171C349.47 24.4171 341.56 33.423 341.56 44.7412C341.56 56.0594 349.47 65.0652 360.667 65.0652C368.577 65.0652 374.906 59.5887 376.975 53.2602L398.151 62.9963C393.404 73.8277 382.573 86.728 360.667 86.728Z" fill="#0E4C17"/>
<path d="M447.837 85.2676H423.253V25.5125H401.469V4.0931H469.5V25.5125H447.837V85.2676Z" fill="#0E4C17"/>
<path d="M104.996 57.4082H78.239C76.0392 57.4082 74.2559 59.146 74.2559 61.2896V102.076C74.2559 104.219 76.0392 105.957 78.239 105.957H104.996C107.196 105.957 108.98 104.219 108.98 102.076V61.2896C108.98 59.146 107.196 57.4082 104.996 57.4082Z" fill="#96C53D"/>
<path d="M61.4045 45.2002H48.0739C45.8741 45.2002 44.0908 46.938 44.0908 49.0816V102.044C44.0908 104.188 45.8741 105.925 48.0739 105.925H61.4045C63.6043 105.925 65.3876 104.188 65.3876 102.044V49.0816C65.3876 46.938 63.6043 45.2002 61.4045 45.2002Z" fill="#8A3895"/>
<path d="M104.996 22.0693H78.239C76.0392 22.0693 74.2559 23.8071 74.2559 25.9507V44.8569C74.2559 47.0006 76.0392 48.7383 78.239 48.7383H104.996C107.196 48.7383 108.98 47.0006 108.98 44.8569V25.9507C108.98 23.8071 107.196 22.0693 104.996 22.0693Z" fill="#E8871E"/>
<path d="M61.4045 0.222656H48.0739C45.8741 0.222656 44.0908 1.96042 44.0908 4.10406V32.7138C44.0908 34.8574 45.8741 36.5952 48.0739 36.5952H61.4045C63.6043 36.5952 65.3876 34.8574 65.3876 32.7138V4.10406C65.3876 1.96042 63.6043 0.222656 61.4045 0.222656Z" fill="#006D12"/>
<path d="M32.5574 91.1528H22.2784C20.806 91.1528 19.6123 92.316 19.6123 93.7509V103.329C19.6123 104.764 20.806 105.927 22.2784 105.927H32.5574C34.0299 105.927 35.2235 104.764 35.2235 103.329V93.7509C35.2235 92.316 34.0299 91.1528 32.5574 91.1528Z" fill="#9D2063"/>
<path d="M31.2406 52.5269H4.48311C2.2833 52.5269 0.5 54.2646 0.5 56.4083V78.6637C0.5 80.8074 2.2833 82.5451 4.48311 82.5451H31.2406C33.4404 82.5451 35.2237 80.8074 35.2237 78.6637V56.4083C35.2237 54.2646 33.4404 52.5269 31.2406 52.5269Z" fill="#008E99"/>
<path d="M31.2406 0.222656H4.48311C2.2833 0.222656 0.5 1.96042 0.5 4.10406V40.0071C0.5 42.1507 2.2833 43.8885 4.48311 43.8885H31.2406C33.4404 43.8885 35.2237 42.1507 35.2237 40.0071V4.10406C35.2237 1.96042 33.4404 0.222656 31.2406 0.222656Z" fill="#CE2887"/>
<path d="M7.95226 91.1528H3.16611C1.69366 91.1528 0.5 92.316 0.5 93.7509V103.329C0.5 104.764 1.69366 105.927 3.16611 105.927H7.95226C9.42472 105.927 10.6184 104.764 10.6184 103.329V93.7509C10.6184 92.316 9.42472 91.1528 7.95226 91.1528Z" fill="#262261"/>
<path d="M106.313 0.222656H76.922C75.4495 0.222656 74.2559 1.38584 74.2559 2.82069V10.8652C74.2559 12.3001 75.4495 13.4633 76.922 13.4633H106.313C107.786 13.4633 108.98 12.3001 108.98 10.8652V2.82069C108.98 1.38584 107.786 0.222656 106.313 0.222656Z" fill="#36AAEA"/>
</svg>
